<svg xmlns="http://www.w3.org/2000/svg" style="display: none;">
	<symbol id="phone" viewBox="0 0 513.64 513.64">
		<g>
			<g>
				<path d="M499.66,376.96l-71.68-71.68c-25.6-25.6-69.12-15.359-79.36,17.92c-7.68,23.041-33.28,35.841-56.32,30.72      c-51.2-12.8-120.32-79.36-133.12-133.12c-7.68-23.041,7.68-48.641,30.72-56.32c33.28-10.24,43.52-53.76,17.92-79.36l-71.68-71.68      c-20.48-17.92-51.2-17.92-69.12,0l-48.64,48.64c-48.64,51.2,5.12,186.88,125.44,307.2c120.32,120.32,256,176.641,307.2,125.44      l48.64-48.64C517.581,425.6,517.581,394.88,499.66,376.96z"/>
			</g>
		</g>
	</symbol>
	<symbol id="location" viewBox="0 0 512 512">
		<g>
			<g>
				<path d="M256,0C153.755,0,70.573,83.182,70.573,185.426c0,126.888,165.939,313.167,173.004,321.035      c6.636,7.391,18.222,7.378,24.846,0c7.065-7.868,173.004-194.147,173.004-321.035C441.425,83.182,358.244,0,256,0z M256,278.719      c-51.442,0-93.292-41.851-93.292-93.293S204.559,92.134,256,92.134s93.291,41.851,93.291,93.293S307.441,278.719,256,278.719z"/>
			</g>
		</g>
	</symbol>
	<symbol id="research" viewBox="0 0 550 490">
		<g>
			<g>
				<path class="st0" d="M486.7,60H124c-17.7,0-32,14.3-32,32v256c0,17.7,14.3,32,32,32h128c5.9,0,10.7-4.8,10.7-10.7l0,0   c0-5.9-4.8-10.7-10.7-10.7H124c-5.9,0-10.7-4.8-10.7-10.7V92c0-5.9,4.8-10.7,10.7-10.7h362.7c5.9,0,10.7,4.8,10.7,10.7v181.3   c0,5.9,4.8,10.7,10.7,10.7l0,0c5.9,0,10.7-4.8,10.7-10.7V92C518.7,74.3,504.3,60,486.7,60z"/>
			</g>
		</g>
		<g>
			<g>
				<rect x="220" y="369.3" class="st0" width="21.3" height="64"/>
			</g>
		</g>
		<g>
			<g>
				<path class="st1" d="M473.6,305.8c-18-18-42.4-28.1-67.9-28.1c-53,0-96,43-96,96c0,53,43,96,96,96c25.4,0,49.9-10.1,67.8-28.1      C511.1,404,511.1,343.3,473.6,305.8z M405.7,452c-43.2,0-78.3-35.1-78.3-78.3c0-43.2,35.1-78.3,78.3-78.3      c20.8-0.1,40.7,8.2,55.4,23c14.7,14.7,22.9,34.6,22.9,55.4C484,416.9,449,452,405.7,452z"/>
			</g>
		</g>
		<g>
			<g>
				<path class="st1" d="M467.4,435.2L467.4,435.2c3.4-3.4,9-3.5,12.5-0.1l75.8,73.9c3.5,3.4,3.6,9,0.2,12.5l-0.9,1      c-3.4,3.6-9.2,3.7-12.7,0.2l-74.8-74.8C463.9,444.3,463.9,438.7,467.4,435.2z"/>
			</g>
		</g>
		<g>
			<g>
				<path class="st0" d="M209.3,422.7h64c5.9,0,10.7,4.8,10.7,10.7l0,0c0,5.9-4.8,10.7-10.7,10.7h-64c-5.9,0-10.7-4.8-10.7-10.7l0,0      C198.7,427.4,203.4,422.7,209.3,422.7z"/>
			</g>
		</g>
		<g>
			<g>
				<path class="st2" d="M250.4,117.3c-17.7,0-32,14.3-32,32s14.3,32,32,32s32-14.3,32-32S268.1,117.3,250.4,117.3z M250.4,160      c-5.9,0-10.7-4.8-10.7-10.7c0-5.9,4.8-10.7,10.7-10.7c5.9,0,10.7,4.8,10.7,10.7C261.1,155.2,256.3,160,250.4,160z"/>
			</g>
		</g>
		<g>
			<g>
				<path class="st2" d="M325.1,192c-17.7,0-32,14.3-32,32s14.3,32,32,32s32-14.3,32-32S342.8,192,325.1,192z M325.1,234.7      c-5.9,0-10.7-4.8-10.7-10.7c0-5.9,4.8-10.7,10.7-10.7c5.9,0,10.7,4.8,10.7,10.7C335.8,229.9,331,234.7,325.1,234.7z"/>
			</g>
		</g>
		<g>
			<g>
				<rect x="175.4" y="176" transform="matrix(0.7071 -0.7071 0.7071 0.7071 -69.5783 205.3622)" class="st2" width="75.4" height="21.3"/>
			</g>
		</g>
		<g>
			<g>
				<rect x="277.1" y="149" transform="matrix(0.7071 -0.7071 0.7071 0.7071 -47.7416 258.135)" class="st2" width="21.3" height="75.4"/>
			</g>
		</g>
		<g>
			<g>
				<path class="st2" d="M399.8,117.3c-17.7,0-32,14.3-32,32s14.3,32,32,32s32-14.3,32-32C431.8,131.7,417.4,117.3,399.8,117.3z      M399.8,160c-5.9,0-10.7-4.8-10.7-10.7c0-5.9,4.8-10.7,10.7-10.7s10.7,4.8,10.7,10.7C410.4,155.2,405.7,160,399.8,160z"/>
			</g>
		</g>
		<g>
			<g>
				<rect x="324.7" y="176" transform="matrix(0.7071 -0.7071 0.7071 0.7071 -25.8677 310.9639)" class="st2" width="75.4" height="21.3"/>
			</g>
		</g>
	</symbol>
	<symbol id="clock" viewBox="0 0 97.2 97.2">
		<g>
			<g>
				<path d="M48.6,0C21.8,0,0,21.8,0,48.6s21.8,48.6,48.6,48.6s48.6-21.8,48.6-48.6S75.4,0,48.6,0z M48.6,88.9      C25.5,88.9,10,71.7,9.4,48.6C8.8,26.1,26.6,8.7,48.6,8.7c22.6,0,39.3,17.5,39.3,40.1C87.9,71.4,71.3,88.9,48.6,88.9z"/>
				<path d="M73.9,47.1H52.1V20.8c0-2.2-1.8-4-4-4s-4,1.8-4,4v30.3c0,2.2,1.8,4,4,4h25.8c2.2,0,4-1.8,4-4S76.1,47.1,73.9,47.1z"/>
			</g>
		</g>
	</symbol>
	<symbol id="dialog" viewBox="0 0 267.4 246.2">
		<g>
			<path d="M253.8,16.5c-8.5-9.5-20.7-15-33.5-15H46.6C34,1.5,21.8,6.9,13.3,16.4C4.7,25.9,0.6,38.6,2,51.3l12.3,112.2     c2.5,22.8,21.7,40.1,44.7,40.1h75.7l35,35.6c3.8,3.8,8.8,5.9,14,5.9c1.9,0,3.9-0.3,5.8-0.9c7.1-2.2,12.2-7.9,13.5-15.3l4.6-25.4     c24.1-0.7,42.5-17,45.1-40.1l12.3-112.2C266.3,38.7,262.3,25.9,253.8,16.5z M246.1,49.2L246.1,49.2l-12.3,112.2     c-1.5,13.2-12.6,23.1-25.8,23.1h-8.4c-4.5,0-8.5,3.3-9.4,7.8l-6,33.2c-0.1,0.3-0.3,0.5-0.5,0.5c-0.1,0-0.4,0.1-0.6-0.1l-24-24.4     c3-2.4,3.9-6.1,3.3-9.2c-0.7-3.8-3.9-7.6-9.3-7.6H58.9c-13.2,0-24.3-9.9-25.8-23.1L20.9,49.2c-0.8-7.3,1.6-14.6,6.5-20.1     c4.9-5.5,11.9-8.6,19.3-8.6h173.6c7.4,0,14.5,3.1,19.4,8.6C244.5,34.6,246.9,41.9,246.1,49.2z"/>
			<path d="M87.9,93c-7.8,0-14.2,6.4-14.2,14.2c0,7.8,6.4,14.2,14.2,14.2c7.8,0,14.2-6.4,14.2-14.2C102,99.4,95.7,93,87.9,93z"/>
			<path d="M133.5,93c-7.8,0-14.2,6.4-14.2,14.2c0,7.8,6.4,14.2,14.2,14.2s14.2-6.4,14.2-14.2C147.7,99.4,141.3,93,133.5,93z"/>
			<path d="M179,93c-7.8,0-14.2,6.4-14.2,14.2c0,7.8,6.4,14.2,14.2,14.2s14.2-6.4,14.2-14.2C193.3,99.4,186.9,93,179,93z"/>
		</g>
	</symbol>
	<symbol id="car" viewBox="0 0 560 338">
		<style type="text/css">
			.st0{stroke:#000000;stroke-width:6;stroke-miterlimit:10;}
		</style>
		<g>
			<g>
				<path class="st0" d="M485.6,138.4l-39.2-17.9l-34.6-55.2c-10-16-27.6-25.7-46.5-25.6H217.9c-17.1,0-33.3,7.9-43.7,21.5l-44.7,58.5      L55,140.1c-18.9,5.2-32,22.5-32,42.1v28.5c0,24.1,19.2,44,43.3,44h6.4c7.7,29.7,38,47.5,67.7,39.8c19.5-5.1,34.8-20.3,39.8-39.8      h168c7.7,29.7,38,47.5,67.7,39.8c19.5-5.1,34.8-20.3,39.8-39.8h12c24.1,0,43.3-19.9,43.3-44v-32.5      C511.1,161.1,501.1,145.5,485.6,138.4z M126.4,276.1c-19.6,0-35.5-15.9-35.5-35.5s15.9-35.5,35.5-35.5s35.5,15.9,35.5,35.5      C162,260.1,146.1,276,126.4,276.1z M401.9,276.1c-19.6,0-35.5-15.9-35.5-35.5s15.9-35.5,35.5-35.5s35.5,15.9,35.5,35.5      C437.5,260.1,421.6,276,401.9,276.1z M467.7,234.7h-10.6c-3.3-30.5-30.8-52.5-61.3-49.1c-25.9,2.8-46.3,23.3-49.1,49.1H181.6      c-3.3-30.5-30.8-52.5-61.3-49.1c-25.9,2.8-46.3,23.3-49.1,49.1h-5c-13.1,0-23.3-10.9-23.3-24v-28.5c-0.1-10.7,7-20,17.3-22.9      l77.9-21.3c2.1-0.6,4-1.8,5.3-3.6L190,73.3c6.7-8.6,17-13.6,27.9-13.6h147.4c12-0.1,23.3,6,29.6,16.2l36.2,57.8      c1,1.7,2.6,3,4.3,3.8l41.8,19.1c8.4,3.9,13.8,12.3,13.7,21.6v32.5h0.1C491,223.8,480.8,234.7,467.7,234.7z"/>
			</g>
		</g>
	</symbol>
	<symbol id="diplom" viewBox="0 0 297 297">
		<g>
			<path d="M148.5,69.022H44.969c-5.775,0-10.458,4.683-10.458,10.458c0,5.774,4.683,10.457,10.458,10.457H148.5     c5.775,0,10.458-4.683,10.458-10.457C158.958,73.704,154.275,69.022,148.5,69.022z"/>
			<path d="M148.5,103.532H44.969c-5.775,0-10.458,4.682-10.458,10.457c0,5.775,4.683,10.458,10.458,10.458H148.5     c5.775,0,10.458-4.683,10.458-10.458C158.958,108.214,154.275,103.532,148.5,103.532z"/>
			<path d="M148.5,138.041H44.969c-5.775,0-10.458,4.683-10.458,10.458c0,5.775,4.683,10.458,10.458,10.458H148.5     c5.775,0,10.458-4.683,10.458-10.458C158.958,142.724,154.275,138.041,148.5,138.041z"/>
			<path d="M270.855,17.255H26.144C11.728,17.255,0,28.983,0,43.399v175.69c0,14.416,11.728,26.145,26.144,26.145h155.036v24.054     c0,3.857,2.123,7.4,5.522,9.22c3.401,1.823,7.529,1.62,10.735-0.518l20.083-13.388l20.082,13.388     c1.749,1.167,3.773,1.757,5.802,1.757c1.691,0,3.388-0.41,4.934-1.238c3.399-1.819,5.522-5.363,5.522-9.22v-24.054h16.994     c14.416,0,26.145-11.729,26.145-26.145V43.399C297,28.983,285.271,17.255,270.855,17.255z M217.521,193.59     c-15.281,0-27.714-12.487-27.714-27.835c0-15.347,12.433-27.834,27.714-27.834c15.281,0,27.713,12.487,27.713,27.834     C245.234,181.103,232.803,193.59,217.521,193.59z M223.322,243.329c-1.757-1.171-3.779-1.756-5.801-1.756     c-2.022,0-4.045,0.585-5.801,1.756l-9.625,6.416v-37.769c4.851,1.632,10.034,2.528,15.426,2.528c5.391,0,10.575-0.896,15.425-2.528     v37.769L223.322,243.329z M276.085,219.088c0,2.834-2.396,5.229-5.23,5.229h-16.994V198.1c7.637-8.612,12.288-19.94,12.288-32.345     c0-26.88-21.814-48.75-48.628-48.75c-26.814,0-48.629,21.87-48.629,48.75c0,12.404,4.651,23.732,12.288,32.345v26.217H26.144     c-2.834,0-5.229-2.395-5.229-5.229V43.399c0-2.834,2.395-5.229,5.229-5.229h244.711c2.834,0,5.23,2.395,5.23,5.229V219.088z"/>
		</g>
	</symbol>
	<symbol id="shield" viewBox="0 0 512 556">
		<g id="surface1">
			<path class="st0" d="M473.5,157.9l0-0.4c-0.2-4.9-0.4-10.1-0.5-15.9c-0.4-28.2-22.9-51.6-51.1-53.2C363.1,85.2,317.5,66,278.6,28     l-0.3-0.3c-12.7-11.6-31.8-11.6-44.5,0l-0.3,0.3C194.5,66,149,85.2,90.1,88.5C61.9,90,39.4,113.4,39,141.6     c-0.1,5.8-0.2,11-0.5,15.9l0,0.9c-1.1,60-2.6,134.7,22.4,202.5c13.7,37.3,34.6,69.7,61.9,96.3c31.1,30.3,71.8,54.4,121,71.6     c1.6,0.6,3.3,1,5,1.4c2.4,0.5,4.8,0.7,7.2,0.7c2.4,0,4.8-0.2,7.2-0.7c1.7-0.3,3.4-0.8,5-1.4c49.2-17.2,89.9-41.3,120.9-71.6     c27.3-26.7,48.1-59.1,61.9-96.4C476,292.9,474.6,218.1,473.5,157.9z M422.8,350.5c-26.4,71.5-80.2,120.6-164.5,150     c-0.3,0.1-0.6,0.2-1,0.3c-0.9,0.2-1.8,0.2-2.6,0c-0.3-0.1-0.6-0.2-0.9-0.3c-84.4-29.4-138.3-78.5-164.6-150     c-23-62.5-21.7-131.1-20.6-191.6l0-0.3c0.2-5.2,0.4-10.6,0.5-16.6c0.2-12.5,10.2-22.9,22.7-23.6c33.3-1.9,62.6-8.3,89.5-19.7     c26.9-11.4,50.7-27.4,72.9-49c1.1-1,2.6-1,3.7,0c22.2,21.6,46.1,37.6,72.9,49c26.9,11.4,56.2,17.8,89.5,19.7     c12.6,0.7,22.5,11.1,22.7,23.6c0.1,6,0.2,11.5,0.5,16.6C444.6,219.3,445.9,287.9,422.8,350.5z"/>
			<path class="st0" d="M256,147.4c-70.4,0-127.6,57.2-127.6,127.6c0,70.4,57.2,127.6,127.6,127.6c70.4,0,127.6-57.2,127.6-127.6     C383.6,204.7,326.4,147.4,256,147.4z M256,372.6c-53.8,0-97.6-43.8-97.6-97.6s43.8-97.6,97.6-97.6c53.8,0,97.6,43.8,97.6,97.6     S309.8,372.6,256,372.6z"/>
			<path class="st0" d="M292.7,235.4l-59.3,59.3l-16.1-16.1c-5.9-5.9-15.4-5.9-21.2,0c-5.9,5.9-5.9,15.4,0,21.2l26.7,26.7     c2.9,2.9,6.8,4.4,10.6,4.4s7.7-1.5,10.6-4.4l69.9-69.9c5.9-5.9,5.9-15.4,0-21.2C308,229.5,298.5,229.5,292.7,235.4z"/>
		</g>
	</symbol>
	<symbol id="mail" viewBox="0 0 512 512">
		<g>
			<path d="M467,61H45C20.218,61,0,81.196,0,106v300c0,24.72,20.128,45,45,45h422c24.72,0,45-20.128,45-45V106    C512,81.28,491.872,61,467,61z M460.786,91L256.954,294.833L51.359,91H460.786z M30,399.788V112.069l144.479,143.24L30,399.788z     M51.213,421l144.57-144.57l50.657,50.222c5.864,5.814,15.327,5.795,21.167-0.046L317,277.213L460.787,421H51.213z M482,399.787    L338.213,256L482,112.212V399.787z" data-original="#000000" class="active-path" data-old_color="#000000" fill="#FFFFFF"/>
		</g>
	</symbol>
	<symbol id="adress" viewBox="0 0 512.00069 512">
		<path d="m316 260c-5.519531 0-10 4.480469-10 10s4.480469 10 10 10 10-4.480469 10-10-4.480469-10-10-10zm0 0"/>
		<path d="m102.167969 369.785156-100 126c-2.386719 3.003906-2.839844 7.109375-1.171875 10.5625 1.667968 3.457032 5.167968 5.652344 9.003906 5.652344h492c3.835938 0 7.335938-2.195312 9.003906-5.652344 1.671875-3.453125 1.214844-7.558594-1.171875-10.5625l-100-126c-1.894531-2.390625-4.78125-3.785156-7.832031-3.785156h-87.597656l74.785156-117.296875c17.542969-26.300781 26.8125-56.972656 26.8125-88.703125 0-88.222656-71.773438-160-160-160s-160 71.777344-160 160c0 31.730469 9.269531 62.398438 26.8125 88.703125l74.785156 117.296875h-87.597656c-3.050781 0-5.933594 1.394531-7.832031 3.785156zm-37.335938 79.214844h60.464844l-34.125 43h-60.46875zm145.519531-63 27.414063 43h-71.0625l34.128906-43zm91.300782 0h9.519531l34.125 43h-71.058594zm59.519531 63 34.125 43h-278.59375l34.128906-43zm59.660156 43-34.128906-43h60.46875l34.125 43zm10.464844-63h-60.464844l-34.128906-43h60.46875zm-291.789063-191.3125c-15.378906-23.023438-23.507812-49.886719-23.507812-77.6875 0-77.195312 62.804688-140 140-140s140 62.804688 140 140c0 27.800781-8.128906 54.664062-23.503906 77.6875-.042969.058594-.078125.117188-.117188.175781-6.566406 10.300781-111.320312 174.605469-116.378906 182.535157-12.722656-19.957032-103.421875-162.214844-116.378906-182.535157-.035156-.058593-.074219-.117187-.113282-.175781zm35.789063 148.3125-34.125 43h-60.46875l34.128906-43zm0 0"/>
		<path d="m256 260c54.898438 0 100-44.457031 100-100 0-55.140625-44.859375-100-100-100s-100 44.859375-100 100c0 55.558594 45.117188 100 100 100zm0-180c44.113281 0 80 35.886719 80 80 0 44.523438-36.175781 80-80 80-43.835938 0-80-35.476562-80-80 0-44.113281 35.886719-80 80-80zm0 0"/>
		<path d="m298.121094 294.125c-4.726563-2.851562-10.875-1.328125-13.726563 3.402344l-36.960937 61.320312c-2.851563 4.730469-1.328125 10.875 3.402344 13.726563 4.75 2.863281 10.886718 1.308593 13.726562-3.402344l36.960938-61.320313c2.851562-4.730468 1.328124-10.875-3.402344-13.726562zm0 0"/>
	</symbol>
</svg>