<svg version="1.1" id="Слой_1" xmlns="http://www.w3.org/2000/svg" x="0" y="0" viewBox="0 0 204 45.1" xml:space="preserve"><style>.st0{fill:#010202}</style><path class="st0" d="M68.8 11.9c0 .6-.1 1.2-.4 1.7-.3.5-.6 1-1 1.4s-.9.7-1.5.9c-.6.2-1.2.3-1.9.3h-2.7v5.1h-3.1V7.4h5.7c.7 0 1.4.1 2 .3.6.3 1.1.5 1.5.9.4.4.8.9 1 1.4.2.6.4 1.2.4 1.9zm-3.2 0c0-.6-.2-1-.5-1.3-.3-.3-.8-.4-1.4-.4h-2.5v3.3h2.6c.5 0 .9-.2 1.3-.5.4-.2.5-.6.5-1.1zm7 5.3c.1.6.2 1.1.5 1.3.3.3.7.4 1.1.4.3 0 .6-.1 1-.2s.8-.4 1.2-.7l1.8 2c-.6.6-1.3 1-2 1.2-.7.2-1.4.3-2 .3-.5 0-1.1-.1-1.6-.2s-1-.4-1.5-.8-.8-.9-1-1.5c-.3-.6-.4-1.5-.4-2.5 0-.9.1-1.7.4-2.4.3-.6.6-1.2 1-1.6.4-.4.9-.7 1.4-.9.5-.2 1.1-.3 1.7-.3.8 0 1.5.1 2 .4s1 .6 1.4 1c.4.4.6 1 .8 1.6.2.6.3 1.3.3 2.1v.7h-6.1zm3-1.9c-.1-.5-.2-.8-.5-1-.3-.2-.6-.4-1-.4s-.7.1-1 .4c-.3.3-.5.6-.5 1h3zm10.3 1.3l1.3-2.5 1.5-2.7h2.6v9.9h-2.8v-4.4l-.8 1.7-.8 1.5H85l-.8-1.5-.8-1.7v4.4h-2.8v-9.9h2.5l1.5 2.7 1.3 2.5zm11.7-5.3c.8 0 1.5.1 2.1.4.6.3 1.1.7 1.5 1.2.3.4.5.9.6 1.5.1.6.2 1.2.2 2 0 .7-.1 1.2-.2 1.8-.1.5-.3 1-.6 1.4-.4.7-1 1.2-1.7 1.5s-1.4.5-2.2.5c-.8 0-1.5-.1-2.1-.4s-1.1-.7-1.5-1.2c-.3-.4-.5-1-.7-1.5-.1-.6-.2-1.3-.2-2 0-.5.1-1 .1-1.5s.2-.9.4-1.3c.3-.7.9-1.3 1.6-1.7s1.8-.7 2.7-.7zm-.1 2.6c-.3 0-.5.1-.8.2s-.4.4-.5.6c-.1.3-.2.5-.2.8s-.1.6-.1.9c0 .3 0 .7.1.9s.1.5.2.7c.1.3.3.5.5.6.2.1.5.2.8.2.3 0 .6-.1.9-.3s.4-.5.5-.8c0-.1.1-.3.1-.6s.1-.5.1-.8c0-.4 0-.7-.1-1-.1-.3-.1-.5-.2-.7-.1-.3-.3-.5-.5-.6-.3 0-.5-.1-.8-.1zm12.3 7.5v-3.9h-3.3v3.9h-2.8v-9.9h2.8v3.8h3.3v-3.8h2.8v9.9h-2.8zm9.9-7.5v7.5h-2.9v-7.5h-2.9v-2.4h8.7v2.4h-2.9zm14.8-2.1c.8 0 1.4.1 1.8.4.4.2.8.6 1.1 1 .3.4.5.9.7 1.4.1.5.2 1.1.2 1.7 0 1.5-.3 2.7-.9 3.5-.4.5-.9.9-1.5 1.2s-1.4.4-2.2.4c-.5 0-.9 0-1.2-.1-.3-.1-.6-.1-.9-.2-.3-.1-.5-.2-.7-.3-.2-.1-.3-.3-.5-.4-.4-.5-.7-1.1-.9-1.9s-.3-1.7-.3-2.7c0-.9.1-1.7.1-2.3.1-.6.1-1 .2-1.2.2-1.1.6-2 1.3-2.7.6-.7 1.5-1.3 2.8-1.8.4-.1.9-.3 1.4-.5.6-.2 1.2-.4 1.9-.6l.8 2.2c-.6.2-1.1.4-1.5.5-.4.1-.7.2-.9.3-.6.2-1.1.4-1.5.6-.4.2-.7.4-.9.6s-.4.5-.5.7c-.1.3-.2.6-.2 1.1.3-.3.7-.6 1.1-.7.6-.1.9-.2 1.2-.2zm-.7 2.6c-.5 0-.9.2-1.2.6-.1.2-.2.5-.3.7-.1.3-.1.6-.1.9 0 .4 0 .7.1 1 .1.3.2.6.4.8.3.3.6.5 1.1.5.3 0 .5 0 .7-.2.2-.1.4-.3.5-.5.1-.2.2-.4.3-.7.1-.3.1-.6.1-.9 0-.3 0-.6-.1-.9 0-.3-.1-.5-.3-.7-.2-.4-.6-.6-1.2-.6zm14.7 3.4c0 .5-.1.9-.2 1.3s-.4.8-.7 1.1c-.3.3-.7.6-1.2.8-.5.2-1 .3-1.7.3H140v-9.9h2.8v3.1h2c.7 0 1.3.1 1.8.3s.9.5 1.1.8c.3.3.5.7.6 1 .1.4.2.8.2 1.2zm-2.9.2c0-.2-.1-.4-.2-.7-.2-.2-.5-.3-.9-.3h-1.7v1.9h1.7c.4 0 .7-.1.9-.3.1-.2.2-.4.2-.6zm3.8 3.4v-9.9h2.8v9.9h-2.8zm9.9-7.5v7.5h-2.9v-7.5h-2.9v-2.4h8.7v2.4h-2.9zm8.6-2.6c.8 0 1.5.1 2.1.4.6.3 1.1.7 1.5 1.2.3.4.5.9.6 1.5.1.6.2 1.2.2 2 0 .7-.1 1.2-.2 1.8-.1.5-.3 1-.6 1.4-.4.7-1 1.2-1.7 1.5s-1.4.5-2.2.5c-.8 0-1.5-.1-2.1-.4s-1.1-.7-1.5-1.2c-.3-.4-.5-1-.7-1.5-.1-.6-.2-1.3-.2-2 0-.5.1-1 .1-1.5s.2-.9.4-1.3c.3-.7.9-1.3 1.6-1.7s1.7-.7 2.7-.7zm-.1 2.6c-.3 0-.5.1-.8.2s-.4.4-.5.6c-.1.2-.2.5-.2.7s-.1.6-.1.9c0 .3 0 .7.1.9s.1.5.2.7c.1.3.3.5.5.6.2.1.5.2.8.2.3 0 .6-.1.9-.3s.4-.5.5-.8c0-.1.1-.3.1-.6s.1-.5.1-.8c0-.4 0-.7-.1-1-.1-.3-.1-.5-.2-.7-.1-.3-.3-.5-.5-.6-.3.1-.6 0-.8 0zm15 4.4c0 .5-.1.9-.3 1.2-.2.4-.4.7-.7 1-.3.3-.7.5-1.1.6-.4.1-.9.2-1.5.2H174v-9.9h5c1.2 0 2.1.3 2.7.8.6.5.9 1.2.9 2 0 .3-.1.7-.3 1.1-.2.4-.5.7-1 .9.2.1.5.2.6.4l.5.5c.2.2.2.4.3.6.1.2.1.4.1.6zm-3.1-3.7c0-.2-.1-.4-.2-.5-.2-.1-.4-.2-.8-.2h-1.9v1.5h1.9c.4 0 .7-.1.8-.2.2-.2.2-.4.2-.6zm.2 3.5c0-.2-.1-.4-.2-.5-.1-.2-.4-.2-.8-.2h-2v1.5h2c.4 0 .7-.1.8-.2.1-.2.2-.4.2-.6zm8.7-6.8c.8 0 1.5.1 2.1.4.6.3 1.1.7 1.5 1.2.3.4.5.9.6 1.5.1.6.2 1.2.2 2 0 .7-.1 1.2-.2 1.8-.1.5-.3 1-.6 1.4-.4.7-1 1.2-1.7 1.5s-1.4.5-2.2.5c-.8 0-1.5-.1-2.1-.4s-1.1-.7-1.5-1.2c-.3-.4-.5-1-.7-1.5-.1-.6-.2-1.3-.2-2 0-.5.1-1 .1-1.5s.2-.9.4-1.3c.3-.7.9-1.3 1.6-1.7s1.7-.7 2.7-.7zm-.1 2.6c-.3 0-.5.1-.8.2s-.4.4-.5.6c-.1.2-.2.5-.2.7s-.1.6-.1.9c0 .3 0 .7.1.9s.1.5.2.7c.1.3.3.5.5.6.2.1.5.2.8.2.3 0 .6-.1.9-.3s.4-.5.5-.8c0-.1.1-.3.1-.6s.1-.5.1-.8c0-.4 0-.7-.1-1-.1-.3-.1-.5-.2-.7-.1-.3-.3-.5-.5-.6-.3.1-.6 0-.8 0zm9.1 3.3l2.1-2.9 2-2.8h2.3v9.9h-2.8v-5.5h-.1l-1.6 2.3-2.3 3.2h-2.5v-9.9h2.8l.1 5.7zm1.7-7.1c-.6 0-1.1-.1-1.4-.3-.4-.2-.7-.5-.9-.8s-.4-.7-.5-1-.2-.7-.2-1h2c0 .1 0 .3.1.4s.1.3.2.4c.1.1.2.3.4.3.1.1.3.1.5.1s.4 0 .5-.1c.1-.1.3-.2.3-.3.1-.1.2-.3.2-.4s.1-.3.1-.4h2c0 .3-.1.6-.2 1s-.3.7-.5 1-.5.6-.9.8c-.6.2-1.1.3-1.7.3zM62.8 30.9v7.5h-2.9v-7.5H57v-2.4h8.7v2.4h-2.9zm6.9 3.3c.1.6.2 1.1.5 1.3.3.3.7.4 1.1.4.3 0 .6-.1 1-.2s.8-.4 1.2-.7l1.8 2c-.6.6-1.3 1-2 1.2-.7.2-1.4.3-2 .3-.5 0-1.1-.1-1.6-.2s-1-.4-1.5-.8-.8-.9-1-1.5c-.3-.6-.4-1.5-.4-2.5 0-.9.1-1.7.4-2.4.3-.6.6-1.2 1-1.6.4-.4.9-.7 1.4-.9.5-.2 1.1-.3 1.7-.3.8 0 1.5.1 2 .4s1 .6 1.4 1c.4.4.6 1 .8 1.6.2.6.3 1.3.3 2.1v.7h-6.1zm3.1-1.9c-.1-.5-.2-.8-.5-1-.3-.2-.6-.4-1-.4s-.7.1-1 .4c-.3.3-.5.6-.5 1h3zm11.1 6.1l-1.8-2.8-1.8 2.8h-3.4l3.8-5-3.7-4.9h3.4l1.7 2.7 1.7-2.7h3.4l-3.7 4.9 3.8 5h-3.4zm10.8 0v-3.9h-3.3v3.9h-2.8v-9.9h2.8v3.8h3.3v-3.8h2.8v9.9h-2.8zm7.8-4.2l2.1-2.9 2-2.8h2.3v9.9h-2.8v-5.5h-.1l-1.6 2.3-2.3 3.2h-2.5v-9.9h2.8l.1 5.7zm15.3-.9c.4.1.8.4 1 .7.2.3.4.7.5 1.2l1 3.2h-2.9l-.7-2.3c-.2-.6-.5-1.1-.8-1.2-.3-.2-.7-.3-1-.3h-.9v3.9h-2.9v-9.9h2.9v3.8h1.3c.2 0 .3-.1.5-.2s.3-.2.5-.4c.1-.2.3-.5.3-.8l.7-2.3h2.8l-.9 2.9c-.1.5-.3.8-.5 1.2-.2 0-.5.3-.9.5zm7 .9l2.1-2.9 2-2.8h2.3v9.9h-2.8v-5.5h-.1l-1.6 2.3-2.3 3.2h-2.5v-9.9h2.8l.1 5.7zM13.2 24h2.3c.2 4.2 2.1 7.3 5.9 9.1 3 1.4 6 1.3 9-.2-.2-.2-.3-.4-.5-.6-2.7-2.7-5.4-5.3-8-8.1-1.4-1.5-3.1-2-5-2.1h-4.8c-2.6 0-4.8-.8-6.4-2.9C4 17 2.4 14.7.8 12.5c-.1-.1-.2-.3-.3-.4-.5-.6-.6-1.1 0-1.6.1-.1.5-.1.7 0 2.5 1.4 5 2.8 7.5 4.3 1 .6 1.7.6 2.5-.1 2.2-1.9 3.6-4.1 3.8-7 .1-.7-.2-1.2-.9-1.5C11.5 4.8 9 3.3 6.5 1.8c-.3-.3-.8-.4-.4-1 .3-.5.4-1 1.2-.7.9.3 1.8 0 2.7.1 2.3.3 4.7.6 7 1 3.3.6 4.8 2.8 5.3 6 .3 1.6.6 3.2 1 4.8.6 2.3 1.7 4.3 3.4 6.1 2.8 2.8 5.5 5.6 8.3 8.5.1 0 .2-.1.3-.1.1-.9.3-1.8.2-2.7-.3-4.8-3.5-8.5-8.3-9.6h-.3c-.8.1-1.2-.3-1.5-1.1-.1-.5-.3-1-.5-1.4 6.1-.5 12.2 3.7 13.1 10.5 1.1 8.1-5.3 14.2-12.4 14.2-7.5 0-12.6-6.3-12.4-12.4z"/><path class="st0" d="M10.8 23.9c.3 9.1 7.7 15 15.4 14.7 8.1-.4 14.1-7 14.1-14.8 0-7.7-6.6-15-15.6-14.5-.2-.8-.3-1.6-.5-2.4-.3-1-.5-2.1-.9-3.1-.2-.7 0-.9.5-1 1.2-.1 2.4-.1 3.6 0 .2 0 .6.5.7.8.2 1 .2 1.9.3 2.9 0 .2.1.4.1.5.6 1.1 2.8 1.3 3.5.3.5-.7 1-1.4 1.4-2.1.4-.6.9-.7 1.5-.3.8.5 1.6 1 2.4 1.4.7.3.7.9.4 1.4-.4.8-.8 1.6-1.1 2.5-.1.4-.1 1 .1 1.3.2.4.7.8 1.1 1.1.4.4.9.4 1.4.1.8-.4 1.6-.8 2.4-1.1.6-.3 1.1-.2 1.5.5.4.8.9 1.6 1.4 2.4.3.6.4 1.1-.3 1.6-.7.4-1.4.9-2.1 1.4-.5.4-.8.8-.6 1.5.1.5.1 1 .4 1.4.2.4.7.7 1.1.8.9.2 1.9.3 2.9.3.6 0 .8.4.8.9v3c0 .7-.4 1-1 1.1-.8.1-1.7.1-2.5.2-.8 0-1.2.4-1.4 1.2-.3 1.5-.1 2.2 1.1 3 .4.3.9.7 1.3.9.6.4.6.9.3 1.5-.5.8-1 1.7-1.5 2.5-.3.6-.8.7-1.4.4-.8-.4-1.6-.8-2.5-1.1-.3-.1-.9-.2-1.1 0-.6.4-1.1 1-1.5 1.5-.2.2-.1.7 0 1.1.3.8.7 1.6 1.1 2.4.3.7.2 1.2-.5 1.5-.8.4-1.6.9-2.4 1.4-.6.3-1.1.3-1.5-.3-.4-.7-1-1.4-1.4-2.1-.4-.6-.9-.8-1.5-.7-.4.1-1 .1-1.3.4-.4.2-.7.7-.8 1.1-.2.9-.3 1.9-.3 2.9-.1.6-.4.8-1 .8h-3.1c-.6 0-.9-.4-1-1-.1-.9-.1-1.7-.2-2.6 0-.7-.3-1.2-1.1-1.3l-.9-.3c-.7-.1-1.3-.1-1.7.6-.4.7-.9 1.4-1.4 2.1-.4.6-.9.7-1.5.3-.8-.5-1.7-1-2.5-1.4-.6-.4-.8-.8-.4-1.5s.7-1.5 1.1-2.3c.3-.7.3-1.2-.3-1.7l-.6-.6c-.6-.6-1.4-.7-2.1-.2-.6.4-1.3.7-2 1.1-.6.3-1 .1-1.4-.5-.5-.8-.9-1.7-1.5-2.5-.4-.6-.2-1.1.3-1.4l2.1-1.5c.6-.4.9-.9.6-1.6-.2-.4-.1-.8-.3-1.1-.3-.4-.7-.7-1.1-.8-.8-.2-1.7-.2-2.5-.2-.7 0-1.2-.3-1.1-1.1v-2.9c0-.3.3-.7.5-.9.1-.1.6.2.8.4 1.2 1.1 2.6 1.6 4.1 1.9.5-.3.8-.2 1.1-.2z"/></svg>