<svg class="icons-sprite" xmlns="http://www.w3.org/2000/svg">
  <symbol id="arrow" viewBox="0 0 31.49 31.49">
    <path d="M21.205 5.007a1.112 1.112 0 00-1.587 0 1.12 1.12 0 000 1.571l8.047 8.047H1.111A1.106 1.106 0 000 15.737c0 .619.492 1.127 1.111 1.127h26.554l-8.047 8.032c-.429.444-.429 1.159 0 1.587a1.112 1.112 0 001.587 0l9.952-9.952a1.093 1.093 0 000-1.571l-9.952-9.953z"/>
  </symbol>
  <symbol id="bell" viewBox="0 0 60 60">
    <path d="M47.024 31.5v-8.994c.043-6.857-4.568-11.405-8.53-13.216A20.104 20.104 0 0035 8.074V7.5c0-2.757-2.243-5-5-5s-5 2.243-5 5v.661a19.8 19.8 0 00-3.146 1.138C17.476 11.317 13.04 16.181 13 22.5v9c0 6.388-2.256 11.869-6.705 16.291a1.002 1.002 0 00.535 1.695l9.491 1.639c1.768.305 3.396.555 4.945.761 1.745 3.42 5.172 5.615 8.916 5.615 3.745 0 7.173-2.196 8.917-5.618 1.543-.205 3.163-.454 4.921-.758l9.49-1.639a1 1 0 00.535-1.695c-4.658-4.631-7.021-10.112-7.021-16.291zM27 7.5c0-1.654 1.346-3 3-3s3 1.346 3 3v.182a19.883 19.883 0 00-6 .047V7.5zm3.183 48c-2.532 0-4.898-1.258-6.417-3.315 2.235.23 4.321.346 6.406.346 2.093 0 4.186-.116 6.43-.349-1.52 2.059-3.887 3.318-6.419 3.318zm13.498-6.347c-1.919.331-3.678.6-5.34.812h-.007c-.733.093-1.445.174-2.142.244l-.017.001c-.639.064-1.263.116-1.881.16l-.347.023c-.535.035-1.064.063-1.59.083-.107.004-.215.01-.322.013a55.413 55.413 0 01-3.714.001l-.334-.014a60.833 60.833 0 01-1.565-.082l-.376-.025a64.796 64.796 0 01-1.824-.155l-.068-.006a80.151 80.151 0 01-2.124-.242h-.009a121.217 121.217 0 01-5.361-.814L9 47.83c3.983-4.554 6-10.038 6-16.33v-8.994c.034-5.435 3.888-9.637 7.691-11.391a17.877 17.877 0 013.497-1.183c.01-.002.021-.001.031-.003a18.18 18.18 0 017.58-.068c.013.003.026-.003.039-.001 1.304.272 2.588.684 3.825 1.249 3.689 1.687 7.396 5.861 7.361 11.392v9c0 6.033 2.175 11.643 6.313 16.331l-7.656 1.321z"/><path d="M36.417 13.838c-3.875-1.771-8.62-1.773-12.469.002-2.195 1.012-5.918 3.973-5.948 8.654a1 1 0 00.994 1.006H19a1 1 0 001-.994c.023-3.677 3.019-6.035 4.785-6.85 3.33-1.537 7.446-1.533 10.799 0a1 1 0 00.833-1.818zM4.802 22.793a.999.999 0 00-1.414 0A11.503 11.503 0 000 30.983c0 3.097 1.203 6.006 3.388 8.19a.997.997 0 001.414 0 .999.999 0 000-1.414A9.517 9.517 0 012 30.983c0-2.563.995-4.97 2.802-6.776a1 1 0 000-1.414z"/><path d="M8.305 37.19a.999.999 0 00.707-1.707 6.565 6.565 0 010-9.276.999.999 0 10-1.414-1.414c-3.337 3.337-3.337 8.768 0 12.104a.993.993 0 00.707.293zm48.307-14.397a.999.999 0 10-1.414 1.414A9.517 9.517 0 0158 30.983a9.517 9.517 0 01-2.802 6.776.999.999 0 101.414 1.414A11.502 11.502 0 0060 30.983c0-3.097-1.203-6.005-3.388-8.19z"/><path d="M50.988 24.793a.999.999 0 000 1.414 6.565 6.565 0 010 9.276.999.999 0 101.414 1.414c3.337-3.337 3.337-8.768 0-12.104a.999.999 0 00-1.414 0z"/>
  </symbol>
  <symbol id="clock" viewBox="0 0 373 373">
    <path d="M186.5 0C83.5 0 0 83.5 0 186.5S83.5 373 186.5 373 373 289.5 373 186.5C372.8 83.5 289.4.1 186.5 0zm8 356.6v-32.8c0-4.4-3.6-8-8-8s-8 3.6-8 8v32.8c-87.7-4.2-157.9-74.4-162.1-162.1h32.8c4.4 0 8-3.6 8-8s-3.6-8-8-8H16.4C20.6 90.8 90.8 20.6 178.5 16.4v32.8c0 4.4 3.6 8 8 8s8-3.6 8-8V16.4c87.7 4.2 157.9 74.4 162.1 162.1h-32.8c-4.4 0-8 3.6-8 8s3.6 8 8 8h32.9c-4.3 87.7-74.5 157.9-162.2 162.1z"/><path d="M270.9 260.9l-76.4-77.7v-80.7c0-4.4-3.6-8-8-8s-8 3.6-8 8v84c0 2.1.8 4.1 2.3 5.6l78.6 80c3.1 3.2 8.2 3.2 11.3.1s3.3-8.2.2-11.3z"/>
  </symbol>
  <symbol id="cogwheel" viewBox="0 0 54 54">
    <path d="M27 13c-7.72 0-14 6.28-14 14s6.28 14 14 14 14-6.28 14-14-6.28-14-14-14zm0 26c-6.617 0-12-5.383-12-12s5.383-12 12-12 12 5.383 12 12-5.383 12-12 12z"/><path d="M51.22 21h-2.018a22.792 22.792 0 00-2.26-5.457l1.426-1.426a2.763 2.763 0 00.814-1.966c0-.743-.289-1.441-.814-1.967l-4.553-4.553c-1.05-1.049-2.881-1.051-3.933 0l-1.426 1.426A22.856 22.856 0 0033 4.798V2.78A2.783 2.783 0 0030.22 0h-6.44A2.783 2.783 0 0021 2.78v2.018a22.842 22.842 0 00-5.457 2.26l-1.426-1.426c-1.051-1.052-2.883-1.05-3.933 0l-4.553 4.553a2.764 2.764 0 00-.814 1.967c0 .742.289 1.44.814 1.966l1.426 1.426A22.765 22.765 0 004.798 21H2.78A2.783 2.783 0 000 23.78v6.439A2.783 2.783 0 002.78 33h2.018a22.842 22.842 0 002.26 5.457l-1.426 1.426a2.763 2.763 0 00-.814 1.966c0 .743.289 1.441.814 1.967l4.553 4.553c1.05 1.051 2.882 1.052 3.933 0l1.426-1.426a22.883 22.883 0 005.457 2.26v2.018a2.783 2.783 0 002.78 2.78h6.439a2.783 2.783 0 002.78-2.78v-2.018a22.842 22.842 0 005.457-2.26l1.426 1.426c1.052 1.052 2.882 1.05 3.933 0l4.553-4.553a2.764 2.764 0 00.814-1.967c0-.742-.289-1.44-.814-1.966l-1.426-1.426A22.883 22.883 0 0049.203 33h2.018a2.783 2.783 0 002.78-2.78v-6.44A2.785 2.785 0 0051.22 21zm.78 9.22c0 .43-.35.78-.78.78h-3.592l-.18.773a20.885 20.885 0 01-2.613 6.311l-.42.674 2.539 2.539a.78.78 0 010 1.104l-4.553 4.553a.78.78 0 01-1.104 0l-2.539-2.539-.674.42a20.839 20.839 0 01-6.311 2.613l-.773.18v3.592c0 .43-.35.78-.78.78h-6.44c-.43 0-.78-.35-.78-.78v-3.592l-.773-.18a20.885 20.885 0 01-6.311-2.613l-.674-.42-2.539 2.539a.78.78 0 01-1.104 0l-4.553-4.553a.78.78 0 010-1.104l2.539-2.539-.42-.674a20.839 20.839 0 01-2.613-6.311L6.372 31H2.78c-.43 0-.78-.35-.78-.78v-6.44c0-.43.35-.78.78-.78h3.592l.18-.773a20.864 20.864 0 012.613-6.311l.42-.674-2.539-2.539a.78.78 0 010-1.104l4.553-4.553a.78.78 0 011.104 0l2.539 2.539.674-.42a20.839 20.839 0 016.311-2.613l.773-.18V2.78c0-.43.35-.78.78-.78h6.439c.431 0 .781.35.781.78v3.592l.773.18a20.885 20.885 0 016.311 2.613l.674.42 2.539-2.539a.78.78 0 011.104 0l4.553 4.553a.78.78 0 010 1.104l-2.539 2.539.42.674a20.818 20.818 0 012.613 6.311l.18.773h3.592c.43 0 .78.35.78.78v6.44z"/><path d="M27 17c-5.514 0-10 4.486-10 10s4.486 10 10 10 10-4.486 10-10-4.486-10-10-10zm0 18c-4.411 0-8-3.589-8-8s3.589-8 8-8 8 3.589 8 8-3.589 8-8 8z"/>
  </symbol>
  <symbol id="identification" viewBox="0 0 640 640">
    <path d="M199.3 310c35.7 0 64.6-28.9 64.6-64.6 0-35.7-28.9-64.6-64.6-64.6s-64.6 28.9-64.6 64.6c0 35.6 28.9 64.6 64.6 64.6zm0-104.1c21.9 0 39.6 17.7 39.6 39.6 0 21.9-17.7 39.6-39.6 39.6-21.9 0-39.6-17.7-39.6-39.6-.1-21.9 17.7-39.6 39.6-39.6zm0 128c-26.4-.2-51.8 10.4-70.3 29.4-18.8 19.1-29 45.1-29 73.4 0 6.9 5.6 12.5 12.5 12.5H286c6.9 0 12.5-5.6 12.5-12.5 0-28.3-10.3-54.3-29-73.4-18.4-19-43.8-29.6-70.2-29.4zm-73.4 90.2c2.1-16.3 9.5-31.6 21-43.4 13.8-14 32.7-21.9 52.4-21.9s38.5 7.9 52.4 21.9c11.5 11.8 18.8 27 21 43.4H125.9z"/><path d="M557.5 93.8h-475c-34.5 0-62.5 28-62.5 62.5v317.5c0 34.5 28 62.5 62.5 62.5h475c34.5 0 62.5-28 62.5-62.5V156.3c0-34.6-28-62.5-62.5-62.5zm37.5 380c-.1 20.7-16.8 37.4-37.5 37.5h-475c-20.7-.1-37.4-16.8-37.5-37.5V156.3c.1-20.7 16.8-37.4 37.5-37.5h475c20.7.1 37.4 16.8 37.5 37.5v317.5z"/><path d="M526.8 302.5H381.1c-6.9 0-12.5 5.6-12.5 12.5s5.6 12.5 12.5 12.5h145.6c6.9 0 12.5-5.6 12.5-12.5s-5.5-12.5-12.4-12.5zm0 80H381.1c-6.9 0-12.5 5.6-12.5 12.5s5.6 12.5 12.5 12.5h145.6c6.9 0 12.5-5.6 12.5-12.5s-5.5-12.5-12.4-12.5zm0-160H381.1c-6.9 0-12.5 5.6-12.5 12.5s5.6 12.5 12.5 12.5h145.6c6.9 0 12.5-5.6 12.5-12.5s-5.5-12.5-12.4-12.5z"/>
  </symbol>
  <symbol id="instagram" viewBox="0 0 512 512">
    <path d="M301 256c0 24.852-20.148 45-45 45s-45-20.148-45-45 20.148-45 45-45 45 20.148 45 45zm0 0"/><path d="M332 120H180c-33.086 0-60 26.914-60 60v152c0 33.086 26.914 60 60 60h152c33.086 0 60-26.914 60-60V180c0-33.086-26.914-60-60-60zm-76 211c-41.355 0-75-33.645-75-75s33.645-75 75-75 75 33.645 75 75-33.645 75-75 75zm86-146c-8.285 0-15-6.715-15-15s6.715-15 15-15 15 6.715 15 15-6.715 15-15 15zm0 0"/><path d="M377 0H135C60.562 0 0 60.563 0 135v242c0 74.438 60.563 135 135 135h242c74.438 0 135-60.563 135-135V135C512 60.562 451.437 0 377 0zm45 332c0 49.625-40.375 90-90 90H180c-49.625 0-90-40.375-90-90V180c0-49.625 40.375-90 90-90h152c49.625 0 90 40.375 90 90zm0 0"/>
  </symbol>
  <symbol id="keyboard-right-arrow-button" viewBox="0 0 306 306">
    <path d="M94.3 0L58.7 35.7 175.9 153 58.7 270.3 94.3 306l153.1-153z"/>
  </symbol>
  <symbol id="magnifying-glass" viewBox="0 0 512 512">
    <path d="M495 466.2L377.2 348.4c29.2-35.6 46.8-81.2 46.8-130.9C424 103.5 331.5 11 217.5 11 103.4 11 11 103.5 11 217.5S103.4 424 217.5 424c49.7 0 95.2-17.5 130.8-46.7L466.1 495c8 8 20.9 8 28.9 0 8-7.9 8-20.9 0-28.8zm-277.5-83.3C126.2 382.9 52 308.7 52 217.5S126.2 52 217.5 52C308.7 52 383 126.3 383 217.5s-74.3 165.4-165.5 165.4z"/>
  </symbol>
  <symbol id="maps-and-flags" viewBox="0 0 512 512">
    <path d="M256 0C153.755 0 70.573 83.182 70.573 185.426c0 126.888 165.939 313.167 173.004 321.035 6.636 7.391 18.222 7.378 24.846 0 7.065-7.868 173.004-194.147 173.004-321.035C441.425 83.182 358.244 0 256 0zm0 278.719c-51.442 0-93.292-41.851-93.292-93.293S204.559 92.134 256 92.134s93.291 41.851 93.291 93.293-41.85 93.292-93.291 93.292z"/>
  </symbol>
  <symbol id="pamphlet" viewBox="0 0 512 512">
    <path d="M256 0L31.4 32.6V512L256 479.4 480.6 512V32.6L256 0zm-15.2 450.9l-179 26v-418l179-26v418zm209.4 26l-179-26v-418l179 26v418z"/><path d="M305.4 220.6v204.5l110.6 16V236.7l-110.6-16.1zM385.7 406l-49.9-7.2V255.7l49.9 7.2V406zM96 236.7v204.5l110.7-16.1V220.6L96 236.7zm80.2 162.1l-49.9 7.2V263l49.9-7.2v143zM302.767 99.57l4.365-30.084 111.43 16.17-4.366 30.084zm.03 50.071l4.365-30.084 111.43 16.17-4.366 30.084zm.025 50.129l4.365-30.084 111.43 16.17-4.366 30.083zM93.396 85.64l111.43-16.17 4.365 30.084-111.43 16.17zm.002 50.097l111.429-16.17 4.365 30.084-111.429 16.17zm.002 50.097l111.43-16.17 4.365 30.085-111.429 16.169z"/>
  </symbol>
  <symbol id="phone-call" viewBox="0 0 473.806 473.806">
    <path d="M374.456 293.506c-9.7-10.1-21.4-15.5-33.8-15.5-12.3 0-24.1 5.3-34.2 15.4l-31.6 31.5c-2.6-1.4-5.2-2.7-7.7-4-3.6-1.8-7-3.5-9.9-5.3-29.6-18.8-56.5-43.3-82.3-75-12.5-15.8-20.9-29.1-27-42.6 8.2-7.5 15.8-15.3 23.2-22.8 2.8-2.8 5.6-5.7 8.4-8.5 21-21 21-48.2 0-69.2l-27.3-27.3c-3.1-3.1-6.3-6.3-9.3-9.5-6-6.2-12.3-12.6-18.8-18.6-9.7-9.6-21.3-14.7-33.5-14.7s-24 5.1-34 14.7l-.2.2-34 34.3c-12.8 12.8-20.1 28.4-21.7 46.5-2.4 29.2 6.2 56.4 12.8 74.2 16.2 43.7 40.4 84.2 76.5 127.6 43.8 52.3 96.5 93.6 156.7 122.7 23 10.9 53.7 23.8 88 26 2.1.1 4.3.2 6.3.2 23.1 0 42.5-8.3 57.7-24.8.1-.2.3-.3.4-.5 5.2-6.3 11.2-12 17.5-18.1 4.3-4.1 8.7-8.4 13-12.9 9.9-10.3 15.1-22.3 15.1-34.6 0-12.4-5.3-24.3-15.4-34.3l-54.9-55.1zm35.8 105.3c-.1 0-.1.1 0 0-3.9 4.2-7.9 8-12.2 12.2-6.5 6.2-13.1 12.7-19.3 20-10.1 10.8-22 15.9-37.6 15.9-1.5 0-3.1 0-4.6-.1-29.7-1.9-57.3-13.5-78-23.4-56.6-27.4-106.3-66.3-147.6-115.6-34.1-41.1-56.9-79.1-72-119.9-9.3-24.9-12.7-44.3-11.2-62.6 1-11.7 5.5-21.4 13.8-29.7l34.1-34.1c4.9-4.6 10.1-7.1 15.2-7.1 6.3 0 11.4 3.8 14.6 7l.3.3c6.1 5.7 11.9 11.6 18 17.9 3.1 3.2 6.3 6.4 9.5 9.7l27.3 27.3c10.6 10.6 10.6 20.4 0 31-2.9 2.9-5.7 5.8-8.6 8.6-8.4 8.6-16.4 16.6-25.1 24.4-.2.2-.4.3-.5.5-8.6 8.6-7 17-5.2 22.7l.3.9c7.1 17.2 17.1 33.4 32.3 52.7l.1.1c27.6 34 56.7 60.5 88.8 80.8 4.1 2.6 8.3 4.7 12.3 6.7 3.6 1.8 7 3.5 9.9 5.3.4.2.8.5 1.2.7 3.4 1.7 6.6 2.5 9.9 2.5 8.3 0 13.5-5.2 15.2-6.9l34.2-34.2c3.4-3.4 8.8-7.5 15.1-7.5 6.2 0 11.3 3.9 14.4 7.3l.2.2 55.1 55.1c10.3 10.2 10.3 20.7.1 31.3zm-154.2-286.1c26.2 4.4 50 16.8 69 35.8s31.3 42.8 35.8 69c1.1 6.6 6.8 11.2 13.3 11.2.8 0 1.5-.1 2.3-.2 7.4-1.2 12.3-8.2 11.1-15.6-5.4-31.7-20.4-60.6-43.3-83.5s-51.8-37.9-83.5-43.3c-7.4-1.2-14.3 3.7-15.6 11s3.5 14.4 10.9 15.6zm217.2 96.3c-8.9-52.2-33.5-99.7-71.3-137.5s-85.3-62.4-137.5-71.3c-7.3-1.3-14.2 3.7-15.5 11-1.2 7.4 3.7 14.3 11.1 15.6 46.6 7.9 89.1 30 122.9 63.7 33.8 33.8 55.8 76.3 63.7 122.9 1.1 6.6 6.8 11.2 13.3 11.2.8 0 1.5-.1 2.3-.2 7.3-1.1 12.3-8.1 11-15.4z"/>
  </symbol>
  <symbol id="phone-receiver" viewBox="0 0 578.106 578.106">
    <path d="M577.83 456.128c1.225 9.385-1.635 17.545-8.568 24.48l-81.396 80.781c-3.672 4.08-8.465 7.551-14.381 10.404-5.916 2.857-11.729 4.693-17.439 5.508-.408 0-1.635.105-3.676.309-2.037.203-4.689.307-7.953.307-7.754 0-20.301-1.326-37.641-3.979s-38.555-9.182-63.645-19.584c-25.096-10.404-53.553-26.012-85.376-46.818-31.823-20.805-65.688-49.367-101.592-85.68-28.56-28.152-52.224-55.08-70.992-80.783-18.768-25.705-33.864-49.471-45.288-71.299-11.425-21.828-19.993-41.616-25.705-59.364S4.59 177.362 2.55 164.51-.306 141.56.102 134.216c.408-7.344.612-11.424.612-12.24.816-5.712 2.652-11.526 5.508-17.442s6.324-10.71 10.404-14.382L98.022 8.756c5.712-5.712 12.24-8.568 19.584-8.568 5.304 0 9.996 1.53 14.076 4.59s7.548 6.834 10.404 11.322l65.484 124.236c3.672 6.528 4.692 13.668 3.06 21.42-1.632 7.752-5.1 14.28-10.404 19.584l-29.988 29.988c-.816.816-1.53 2.142-2.142 3.978s-.918 3.366-.918 4.59c1.632 8.568 5.304 18.36 11.016 29.376 4.896 9.792 12.444 21.726 22.644 35.802s24.684 30.293 43.452 48.653c18.36 18.77 34.68 33.354 48.96 43.76 14.277 10.4 26.215 18.053 35.803 22.949 9.588 4.896 16.932 7.854 22.031 8.871l7.648 1.531c.816 0 2.145-.307 3.979-.918 1.836-.613 3.162-1.326 3.979-2.143l34.883-35.496c7.348-6.527 15.912-9.791 25.705-9.791 6.938 0 12.443 1.223 16.523 3.672h.611l118.115 69.768c8.571 5.308 13.67 12.038 15.303 20.198z"/>
  </symbol>
  <symbol id="phone" viewBox="0 0 41.1 14.9">
    <path d="M33.6 14.8c-3.3 0-3.4-.1-3.8-.6-.3-.4-.3-.7-.2-1.7.1-1.9.1-3.1-.1-3.6-.9-.4-5.4-.7-9.4-.4-.9.1-1.8.1-2.9.1-1.7 0-4.6.1-5.3.4-.1.2-.4 1.1-.3 3.9 0 .6 0 .8-.2 1.2-.4.6-.4.6-10.1.6H.1L0 11.5C.1 5 4.8.2 11.4.2c0 0 6.5-.2 8.7-.2 2.7 0 10.7.1 10.7.1 6.1 0 10.3 4.4 10.3 10.7v3.9h-1.2c-2.9.1-4.9.1-6.3.1zm-1.5-2.5h6.4v-1.4c0-4.9-3.1-8.2-7.8-8.2 0 0-8-.1-10.7-.1-2.2 0-8.7.2-8.7.2-5.1 0-8.8 3.7-8.8 8.9v.7h6.6c0-2.6.2-4.4 1.3-5.2.9-.7 2.8-.9 6.9-1 1 0 1.9-.1 2.8-.1.1 0 9.5-.5 11.3 1.1.8.8.9 2.4.7 5.1z"/>
  </symbol>
  <symbol id="placeholder" viewBox="0 0 60 60">
    <path d="M30 26c3.9 0 7-3.1 7-7s-3.1-7-7-7-7 3.1-7 7 3.1 7 7 7zm0-12c2.8 0 5 2.2 5 5s-2.2 5-5 5-5-2.2-5-5 2.2-5 5-5z"/><path d="M29.8 54.8l15.3-22.2c5.8-7.7 4.9-20.3-1.8-27C39.8 2 34.9 0 29.8 0s-9.9 2-13.6 5.6c-6.7 6.7-7.5 19.3-1.8 27l15.4 22.2zM17.7 7c3.2-3.2 7.6-5 12.1-5S38.7 3.8 42 7c6 6 6.8 17.4 1.6 24.4L29.8 51.2 16.1 31.4c-5.2-6.9-4.5-18.3 1.6-24.4z"/><path d="M42.1 43c-.5-.1-1 .3-1.1.9s.3 1 .9 1.1C52.4 46.2 58 49.6 58 51.5c0 2.7-10.7 6.5-28 6.5S2 54.2 2 51.5c0-1.9 5.6-5.3 16.1-6.5.5-.1.9-.6.9-1.1-.1-.5-.6-.9-1.1-.9C7.4 44.2 0 47.7 0 51.5 0 55.7 10.3 60 30 60s30-4.3 30-8.5c0-3.8-7.4-7.3-17.9-8.5z"/>
  </symbol>
  <symbol id="prototype" viewBox="0 0 512 511">
    <path d="M482 425.1V165.5c0-8.3-6.7-15-15-15s-15 6.7-15 15v75h-75c-8.3 0-15 6.7-15 15s6.7 15 15 15h75v154.6c-12.8 4.5-22.9 14.7-27.4 27.4H272v-107c0-8.3-6.7-15-15-15s-15 6.7-15 15v107H87.4c-4.5-12.8-14.7-22.9-27.4-27.4V270.5h107c8.3 0 15-6.7 15-15s-6.7-15-15-15H60V87.9c12.8-4.5 22.9-14.7 27.4-27.4H242v75c0 8.3 6.7 15 15 15s15-6.7 15-15v-75h75c8.3 0 15-6.7 15-15s-6.7-15-15-15H87.4C81.2 13 64.6.5 45 .5 20.2.5 0 20.7 0 45.5c0 19.6 12.5 36.2 30 42.4v337.2C12.5 431.3 0 448 0 467.5c0 24.8 20.2 45 45 45 19.6 0 36.2-12.5 42.4-30h337.2c6.2 17.5 22.9 30 42.4 30 24.8 0 45-20.2 45-45 0-19.6-12.6-36.2-30-42.4zM45 30.5c8.3 0 15 6.7 15 15s-6.7 15-15 15-15-6.7-15-15 6.7-15 15-15zm0 452c-8.3 0-15-6.7-15-15s6.7-15 15-15 15 6.7 15 15-6.7 15-15 15zm422 0c-8.3 0-15-6.7-15-15s6.7-15 15-15 15 6.7 15 15-6.7 15-15 15z"/><path d="M435.2 13.7L250.8 198.1l-28.5 28.5c-1.6 1.6-2.9 3.7-3.6 5.9l-20.1 60.3-18.7 18.7c-5.9 5.9-5.9 15.4 0 21.2 5.9 5.9 15.4 5.9 21.2 0l18.7-18.7 60.3-20.1c2.2-.7 4.2-2 5.9-3.6l212.8-213c17.6-17.6 17.6-46.1 0-63.6-17.5-17.6-46.1-17.6-63.6 0zm-168 252.8l-31.8 10.6 10.6-31.8 15.4-15.4 21.2 21.2-15.4 15.4zm36.6-36.6l-21.2-21.2 142-142 21.2 21.2-142 142zM477.6 56.1L467 66.7l-21.2-21.2 10.6-10.6c5.9-5.8 15.4-5.8 21.2 0 5.9 5.9 5.9 15.3 0 21.2z"/>
  </symbol>
  <symbol id="right-arrow" viewBox="0 0 129 129">
    <path d="M40.4 121.3c-.8.8-1.8 1.2-2.9 1.2s-2.1-.4-2.9-1.2c-1.6-1.6-1.6-4.2 0-5.8l51-51-51-51c-1.6-1.6-1.6-4.2 0-5.8 1.6-1.6 4.2-1.6 5.8 0l53.9 53.9c1.6 1.6 1.6 4.2 0 5.8l-53.9 53.9z"/>
  </symbol>
  <symbol id="round-help-button" viewBox="0 0 400 400">
    <path d="M200 0C89.7 0 0 89.7 0 200s89.7 200 200 200 200-89.7 200-200S310.3 0 200 0zm0 373.8c-95.8 0-173.8-78-173.8-173.8 0-95.8 78-173.8 173.8-173.8 95.8 0 173.8 78 173.8 173.8 0 95.8-78 173.8-173.8 173.8z"/><path d="M200 91.4c-35.2 0-63.8 28.6-63.8 63.8 0 7.2 5.9 13.1 13.1 13.1 7.2 0 13.1-5.9 13.1-13.1 0-20.7 16.8-37.6 37.6-37.6 20.7 0 37.6 16.9 37.6 37.6 0 20.7-16.8 37.6-37.6 37.6-7.2 0-13.1 5.9-13.1 13.1v45.7c0 7.2 5.9 13.1 13.1 13.1s13.1-5.9 13.1-13.1v-33.9c28.9-6.1 50.7-31.7 50.7-62.4 0-35.3-28.6-63.9-63.8-63.9zm0 182.3c-9.1 0-16.5 7.4-16.5 16.5s7.4 16.5 16.5 16.5 16.5-7.4 16.5-16.5-7.4-16.5-16.5-16.5z"/>
  </symbol>
  <symbol id="sandglass" viewBox="0 0 60 60">
    <circle cx="35" cy="52" r="1"/><circle cx="39" cy="52" r="1"/><circle cx="43" cy="52" r="1"/><circle cx="33" cy="33" r="1"/><circle cx="35" cy="22" r="1"/><circle cx="39" cy="22" r="1"/><circle cx="37" cy="20" r="1"/><circle cx="39" cy="18" r="1"/><circle cx="35" cy="26" r="1"/><circle cx="33" cy="24" r="1"/><circle cx="37" cy="24" r="1"/><circle cx="33" cy="36" r="1"/><circle cx="33" cy="39" r="1"/><circle cx="33" cy="42" r="1"/><circle cx="33" cy="45" r="1"/><circle cx="33" cy="48" r="1"/><circle cx="37" cy="50" r="1"/><circle cx="41" cy="50" r="1"/><path d="M24 11h-5a1 1 0 100 2h5a1 1 0 100-2zm0 7H14a1 1 0 100 2h10a1 1 0 100-2zm0 7H9a1 1 0 100 2h15a1 1 0 100-2zm0 7H5a1 1 0 100 2h19a1 1 0 100-2zm0 7H11a1 1 0 100 2h13a1 1 0 100-2zm0 7h-7a1 1 0 100 2h7a1 1 0 100-2zm29 8h-5v-6c0-7.591-4.147-14.44-10.714-18A20.428 20.428 0 0048 12V6h5c1.654 0 3-1.346 3-3s-1.346-3-3-3H30a1 1 0 100 2h23a1.001 1.001 0 010 2H30a1 1 0 100 2h16v6a18.45 18.45 0 01-11.381 17.075l-.002.001-.002.001c-.011.005-.018.014-.029.02a.997.997 0 00-.293.198.953.953 0 00-.162.241c-.016.029-.041.049-.054.08v.002a1.002 1.002 0 000 .768.972.972 0 00.192.289c.022.023.047.041.071.063a.968.968 0 00.225.152c.019.009.031.026.051.034A18.45 18.45 0 0146 48v6a1 1 0 00-2 0h-2a1 1 0 00-2 0h-2a1 1 0 00-2 0h-2a1 1 0 00-2 0h-2a1 1 0 100 2h23a1.001 1.001 0 010 2H30a1 1 0 100 2h23c1.654 0 3-1.346 3-3s-1.346-3-3-3z"/>
  </symbol>
  <symbol id="shopping-cart" viewBox="0 0 512 512">
    <path d="M165 331h272c6.7 0 12.6-4.4 14.4-10.9l60-210c1.3-4.5.4-9.4-2.4-13.2-2.8-3.8-7.3-6-12-6H130.4l-10.7-48.3C118.1 35.9 112 31 105 31H15C6.7 31 0 37.7 0 46s6.7 15 15 15h78c1.9 8.6 51.3 230.9 54.2 243.7-15.9 6.9-27.1 22.8-27.1 41.3 0 24.8 20.2 45 45 45h272c8.3 0 15-6.7 15-15s-6.7-15-15-15H165c-8.3 0-15-6.7-15-15s6.7-15 15-15zm312.1-210l-51.4 180H177l-40-180h340.1zM150 436c0 24.8 20.2 45 45 45s45-20.2 45-45-20.2-45-45-45-45 20.2-45 45zm45-15c8.3 0 15 6.7 15 15s-6.7 15-15 15-15-6.7-15-15 6.7-15 15-15zm167 15c0 24.8 20.2 45 45 45s45-20.2 45-45-20.2-45-45-45-45 20.2-45 45zm45-15c8.3 0 15 6.7 15 15s-6.7 15-15 15-15-6.7-15-15 6.7-15 15-15z"/>
  </symbol>
  <symbol id="svg-btn-8" viewBox="0 0 25.9 25.8">
    <path d="M12.9.1C5.9.1.1 5.8.1 12.9s5.8 12.8 12.8 12.8c7.1 0 12.8-5.8 12.8-12.8S20 .1 12.9.1zm0 24.1c-6.2 0-11.3-5.1-11.3-11.3S6.7 1.6 12.9 1.6c6.2 0 11.3 5.1 11.3 11.3s-5 11.3-11.3 11.3z"/><path d="M10.1 8.1l5.6 5-5.6 4.7v1.9l7.8-6.5-7.8-7z"/>
  </symbol>
  <symbol id="svg-theme-3" viewBox="0 0 22.3 25.6">
    <path d="M22.2 4.8l-1-1.1L18 6.6c-1.6-1.4-3.7-2.3-5.9-2.6V1.8h2V.1h-6v1.8h2V4C4.5 4.4.1 9.1.1 14.8c0 6 4.9 10.8 10.8 10.8s10.8-4.9 10.8-10.8c0-2.7-1-5.2-2.7-7.1l3.2-2.9zM11 24.1c-5.2 0-9.3-4.2-9.3-9.3S5.8 5.4 11 5.4s9.3 4.2 9.3 9.3-4.2 9.4-9.3 9.4z"/><path d="M11.2 7.5l-.7.1.2 7 5 5 .5-.4c1.6-1.2 3-4.8 1.5-8.1-1.2-2.8-3.3-3.9-6.5-3.6zm4.6 10.1L12.2 14l-.1-5c2.1-.1 3.4.8 4.3 2.8 1 2.3.3 4.7-.6 5.8z"/>
  </symbol>
  <symbol id="tools" viewBox="0 0 420.555 420.555">
    <path d="M419.658 319.097a73.2 73.2 0 00-18.48-30.64 72.719 72.719 0 00-51.76-21.44 73.592 73.592 0 00-28.88 5.92l-72-72 95.6-94.88 22.64-.64a8 8 0 006.64-3.92l32.4-54.48a8 8 0 00-1.2-9.76l-28-28a8 8 0 00-9.76-1.2l-54.48 32.4a8 8 0 00-3.92 6.64l-.64 22.56-95.36 95.2-65.44-65.44c6.871-39.839-19.855-77.705-59.694-84.576a73.197 73.197 0 00-53.026 11.216 8 8 0 00.56 13.6l36.32 20.24c8 4.56 9.6 18.16 3.12 29.68-6.48 11.52-18.88 17.44-26.96 12.96l-33.68-18.24a8 8 0 00-11.839 7.52c2.531 40.348 37.292 71.004 77.64 68.473a73.203 73.203 0 0024.2-5.753l59.52 59.52-25.76 25.76-5.84-5.76c-6.465-6.187-16.655-6.187-23.12 0l-8 8c-6.095 5.934-6.481 15.599-.88 22l-94.64 94.48c-6.384 6.109-6.607 16.238-.498 22.622.162.17.328.336.498.498l27.04 27.04c6.109 6.384 16.238 6.607 22.622.498.17-.162.336-.328.498-.498l94.72-94.64c6.401 5.601 16.066 5.215 22-.88l8-8c6.384-6.109 6.607-16.238.498-22.622-.162-.17-.328-.336-.498-.498l-5.84-5.84 25.6-26.16 77.6 77.6c-6.704 39.868 20.18 77.621 60.048 84.325a73.199 73.199 0 0064.432-20.965 8 8 0 00-3.6-12.96l-45.04-12.08a14.8 14.8 0 01-9.44-9.2 29.362 29.362 0 01-.8-18.88c3.36-12.56 14-21.52 22.96-19.12l44.56 12a7.516 7.516 0 002.16 0 7.999 7.999 0 007.199-11.68zm-98.48-240.56a7.998 7.998 0 002.32-5.44l.64-21.36 45.36-26.96 19.2 19.2-26.4 45.28-21.76.8c-2.043.05-3.99.88-5.44 2.32l-97.6 97.52-13.76-13.76 97.44-97.6zm-277.44 318.8l-27.44-27.28 95.12-94.88 13.76 13.76 13.12 13.6-94.56 94.8zm117.04-96l-10.56-10.64-4.08-4.08-33.6-33.84 8-8 48 48.64-7.76 7.92zm1.52-36.48l-13.76-13.76 25.76-25.76 13.76 13.76-25.76 25.76zm207.36 38.48a28.008 28.008 0 00-7.28-.96c-17.441 1.408-31.837 14.204-35.28 31.36a45.362 45.362 0 001.52 29.2 30.481 30.481 0 0020.08 18.4l29.76 8c-27.138 16.171-62.247 7.281-78.418-19.856a57.202 57.202 0 01-6.542-42.384 8 8 0 00-2.16-7.44l-180.32-180.48a8 8 0 00-9.44-1.12 57.442 57.442 0 01-26.8 6.64c-24.069.021-45.568-15.048-53.76-37.68l18.24 10.16a28.24 28.24 0 0013.92 3.6 41.759 41.759 0 0034.8-22.72c10.88-19.44 6.64-42.56-9.36-51.52l-23.28-13.2c29.75-10.627 62.481 4.876 73.108 34.625a57.206 57.206 0 011.852 32.175 8 8 0 002.16 7.44l180.72 180.64a8 8 0 009.36 1.44 57.53 57.53 0 0126.8-6.64 57.121 57.121 0 0149.28 28.16l-28.96-7.84z"/>
  </symbol>
  <symbol id="trucks" viewBox="0 0 512 512">
    <path d="M119.467 337.067c-28.237 0-51.2 22.963-51.2 51.2 0 28.237 22.963 51.2 51.2 51.2s51.2-22.963 51.2-51.2c0-28.237-22.964-51.2-51.2-51.2zm0 85.333c-18.825 0-34.133-15.309-34.133-34.133 0-18.825 15.309-34.133 34.133-34.133s34.133 15.309 34.133 34.133c0 18.824-15.309 34.133-34.133 34.133zM409.6 337.067c-28.237 0-51.2 22.963-51.2 51.2 0 28.237 22.963 51.2 51.2 51.2 28.237 0 51.2-22.963 51.2-51.2 0-28.237-22.963-51.2-51.2-51.2zm0 85.333c-18.825 0-34.133-15.309-34.133-34.133 0-18.825 15.309-34.133 34.133-34.133 18.825 0 34.133 15.309 34.133 34.133 0 18.824-15.308 34.133-34.133 34.133z"/><path d="M510.643 289.784l-76.8-119.467a8.535 8.535 0 00-7.177-3.917H332.8a8.53 8.53 0 00-8.533 8.533v213.333a8.525 8.525 0 008.533 8.533h34.133v-17.067h-25.6V183.467h80.674l72.926 113.442v82.825h-42.667V396.8h51.2a8.525 8.525 0 008.533-8.533V294.4a8.51 8.51 0 00-1.356-4.616z"/><path d="M375.467 277.333V217.6h68.267v-17.067h-76.8a8.53 8.53 0 00-8.533 8.533v76.8a8.525 8.525 0 008.533 8.533h128v-17.067H375.467zM332.8 106.667H8.533A8.536 8.536 0 000 115.2v273.067a8.53 8.53 0 008.533 8.533H76.8v-17.067H17.067v-256h307.2v256H162.133V396.8H332.8a8.525 8.525 0 008.533-8.533V115.2a8.53 8.53 0 00-8.533-8.533z"/><path d="M8.533 345.6h51.2v17.067h-51.2zm170.667 0h145.067v17.067H179.2zm290.133 0h34.133v17.067h-34.133zm-435.2-204.8H332.8v17.067H34.133zm76.8 238.933H128V396.8h-17.067zm290.134 0h17.067V396.8h-17.067zM34.133 72.533H153.6V89.6H34.133zM0 72.533h17.067V89.6H0z"/>
  </symbol>
  <symbol id="tube" viewBox="0 0 578.106 578.106">
    <path d="M577.83 456.128c1.225 9.385-1.635 17.545-8.568 24.48l-81.396 80.781c-3.672 4.08-8.465 7.551-14.381 10.404-5.916 2.857-11.729 4.693-17.439 5.508-.408 0-1.635.105-3.676.309-2.037.203-4.689.307-7.953.307-7.754 0-20.301-1.326-37.641-3.979s-38.555-9.182-63.645-19.584c-25.096-10.404-53.553-26.012-85.376-46.818-31.823-20.805-65.688-49.367-101.592-85.68-28.56-28.152-52.224-55.08-70.992-80.783-18.768-25.705-33.864-49.471-45.288-71.299-11.425-21.828-19.993-41.616-25.705-59.364S4.59 177.362 2.55 164.51-.306 141.56.102 134.216c.408-7.344.612-11.424.612-12.24.816-5.712 2.652-11.526 5.508-17.442s6.324-10.71 10.404-14.382L98.022 8.756c5.712-5.712 12.24-8.568 19.584-8.568 5.304 0 9.996 1.53 14.076 4.59s7.548 6.834 10.404 11.322l65.484 124.236c3.672 6.528 4.692 13.668 3.06 21.42-1.632 7.752-5.1 14.28-10.404 19.584l-29.988 29.988c-.816.816-1.53 2.142-2.142 3.978s-.918 3.366-.918 4.59c1.632 8.568 5.304 18.36 11.016 29.376 4.896 9.792 12.444 21.726 22.644 35.802s24.684 30.293 43.452 48.653c18.36 18.77 34.68 33.354 48.96 43.76 14.277 10.4 26.215 18.053 35.803 22.949 9.588 4.896 16.932 7.854 22.031 8.871l7.648 1.531c.816 0 2.145-.307 3.979-.918 1.836-.613 3.162-1.326 3.979-2.143l34.883-35.496c7.348-6.527 15.912-9.791 25.705-9.791 6.938 0 12.443 1.223 16.523 3.672h.611l118.115 69.768c8.571 5.308 13.67 12.038 15.303 20.198z"/>
  </symbol>
  <symbol id="vk-social-network-logo" viewBox="0 0 548.358 548.358">
    <path d="M545.451 400.298c-.664-1.431-1.283-2.618-1.858-3.569-9.514-17.135-27.695-38.167-54.532-63.102l-.567-.571-.284-.28-.287-.287h-.288c-12.18-11.611-19.893-19.418-23.123-23.415-5.91-7.614-7.234-15.321-4.004-23.13 2.282-5.9 10.854-18.36 25.696-37.397 7.807-10.089 13.99-18.175 18.556-24.267 32.931-43.78 47.208-71.756 42.828-83.939l-1.701-2.847c-1.143-1.714-4.093-3.282-8.846-4.712-4.764-1.427-10.853-1.663-18.278-.712l-82.224.568c-1.332-.472-3.234-.428-5.712.144l-3.713.859-1.431.715-1.136.859c-.952.568-1.999 1.567-3.142 2.995-1.137 1.423-2.088 3.093-2.848 4.996-8.952 23.031-19.13 44.444-30.553 64.238-7.043 11.803-13.511 22.032-19.418 30.693-5.899 8.658-10.848 15.037-14.842 19.126-4 4.093-7.61 7.372-10.852 9.849-3.237 2.478-5.708 3.525-7.419 3.142-1.715-.383-3.33-.763-4.859-1.143-2.663-1.714-4.805-4.045-6.42-6.995-1.622-2.95-2.714-6.663-3.285-11.136-.568-4.476-.904-8.326-1-11.563-.089-3.233-.048-7.806.145-13.706.198-5.903.287-9.897.287-11.991 0-7.234.141-15.085.424-23.555.288-8.47.521-15.181.716-20.125.194-4.949.284-10.185.284-15.705s-.336-9.849-1-12.991a44.442 44.442 0 00-2.99-9.137c-1.335-2.95-3.289-5.232-5.853-6.852-2.569-1.618-5.763-2.902-9.564-3.856-10.089-2.283-22.936-3.518-38.547-3.71-35.401-.38-58.148 1.906-68.236 6.855-3.997 2.091-7.614 4.948-10.848 8.562-3.427 4.189-3.905 6.475-1.431 6.851 11.422 1.711 19.508 5.804 24.267 12.275l1.715 3.429c1.334 2.474 2.666 6.854 3.999 13.134 1.331 6.28 2.19 13.227 2.568 20.837.95 13.897.95 25.793 0 35.689-.953 9.9-1.853 17.607-2.712 23.127-.859 5.52-2.143 9.993-3.855 13.418-1.715 3.426-2.856 5.52-3.428 6.28-.571.76-1.047 1.239-1.425 1.427a21.387 21.387 0 01-7.71 1.431c-2.667 0-5.901-1.334-9.707-4-3.805-2.666-7.754-6.328-11.847-10.992-4.093-4.665-8.709-11.184-13.85-19.558-5.137-8.374-10.467-18.271-15.987-29.691l-4.567-8.282c-2.855-5.328-6.755-13.086-11.704-23.267-4.952-10.185-9.329-20.037-13.134-29.554-1.521-3.997-3.806-7.04-6.851-9.134l-1.429-.859c-.95-.76-2.475-1.567-4.567-2.427a30.301 30.301 0 00-6.567-1.854l-78.229.568c-7.994 0-13.418 1.811-16.274 5.428l-1.143 1.711c-.571.953-.859 2.475-.859 4.57 0 2.094.571 4.664 1.714 7.707 11.42 26.84 23.839 52.725 37.257 77.659 13.418 24.934 25.078 45.019 34.973 60.237 9.897 15.229 19.985 29.602 30.264 43.112 10.279 13.515 17.083 22.176 20.412 25.981 3.333 3.812 5.951 6.662 7.854 8.565l7.139 6.851c4.568 4.569 11.276 10.041 20.127 16.416 8.853 6.379 18.654 12.659 29.408 18.85 10.756 6.181 23.269 11.225 37.546 15.126 14.275 3.905 28.169 5.472 41.684 4.716h32.834c6.659-.575 11.704-2.669 15.133-6.283l1.136-1.431c.764-1.136 1.479-2.901 2.139-5.276.668-2.379 1-5 1-7.851-.195-8.183.428-15.558 1.852-22.124 1.423-6.564 3.045-11.513 4.859-14.846 1.813-3.33 3.859-6.14 6.136-8.418 2.282-2.283 3.908-3.666 4.862-4.142.948-.479 1.705-.804 2.276-.999 4.568-1.522 9.944-.048 16.136 4.429 6.187 4.473 11.99 9.996 17.418 16.56 5.425 6.57 11.943 13.941 19.555 22.124 7.617 8.186 14.277 14.271 19.985 18.274l5.708 3.426c3.812 2.286 8.761 4.38 14.853 6.283 6.081 1.902 11.409 2.378 15.984 1.427l73.087-1.14c7.229 0 12.854-1.197 16.844-3.572 3.998-2.379 6.373-5 7.139-7.851.764-2.854.805-6.092.145-9.712-.677-3.611-1.344-6.136-2.008-7.563z"/>
  </symbol>
  <symbol id="Показать все" viewBox="0 0 23.9 14.5">
    <path d="M23.6 6.5C23.4 6.2 18.9.3 12.5.1 5.4-.2.6 6.2.4 6.5l-.3.4.3.4c.2.3 4.5 7.1 11.6 7.1 6.7 0 11.4-6.8 11.6-7.1l.3-.4-.3-.4zm-11.4 5.4c-2.6 0-4.8-2.2-4.8-4.8 0-2.6 2.2-4.8 4.8-4.8S17 4.4 17 7.1c0 2.6-2.1 4.8-4.8 4.8zM2 7c.8-.9 3-3.3 6-4.5-1.2 1.2-2 2.8-2 4.6 0 2.3 1.2 4.2 3 5.3C5.3 11.2 2.8 8.1 2 7zm14.3 4.8c1.3-1.2 2.2-2.9 2.2-4.8 0-1.6-.6-3.1-1.7-4.2C19.4 4.1 21.3 6.1 22 7c-.8 1-2.8 3.4-5.7 4.8z"/>
  </symbol>
  <symbol id="broke_Бьет током" viewBox="0 0 26.2 44.6">
    <path stroke="#000" stroke-miterlimit="10" stroke-width="1.5" d="M11.1 23.2l-9.9-.8L7.6 1.6 22 .9l-9 16.6h11.8l-20 26.3c0 .1-.1 0-.1-.1l6.4-20.5z"/>
  </symbol>
  <symbol id="broke_Включается и сразу выключается" viewBox="0 0 42.2 37.8">
    <path d="M19.7 16.2c.4 0 .8-.3.8-.8V.9c0-.4-.3-.8-.8-.8s-.7.4-.7.8v14.5c0 .4.3.8.7.8z"/><path d="M41.9 2.6c-.3-.3-.7-.4-1.1-.1l-9 7.5c-1.1-1.5-2.5-2.7-4.1-3.8-.3-.2-.8-.1-1 .2-.2.4-.1.8.2 1 1.5.9 2.7 2.1 3.7 3.5l-21 17.6C7.4 26.1 6 22.8 6 19.1c0-4.6 2.3-8.8 6-11.4.3-.2.4-.7.2-1-.2-.3-.7-.4-1-.2C7 9.4 4.5 14.1 4.5 19.1c0 4 1.6 7.7 4.1 10.4L.3 36.4c-.3.3-.3.8 0 1.1.1.2.4.3.6.3.2 0 .3-.1.5-.2l8.4-7c2.7 2.3 6.2 3.8 10 3.8 8.4 0 15.2-6.8 15.2-15.2 0-2.8-.8-5.5-2.2-7.9l9.1-7.6c.3-.3.3-.8 0-1.1zm-8.5 16.5c0 7.6-6.2 13.7-13.7 13.7-3.4 0-6.5-1.2-8.9-3.3l20.7-17.3c1.3 2.1 1.9 4.5 1.9 6.9z"/>
  </symbol>
  <symbol id="broke_Вода не набирается" viewBox="0 0 29.3 36">
    <path d="M4.3 5.4h3.8c.4 0 .8-.3.8-.8s-.4-.7-.8-.7H4.3c-.4 0-.8.3-.8.8s.4.7.8.7zm6.6 0h3.8c.4 0 .8-.3.8-.8s-.3-.8-.8-.8h-3.8c-.4 0-.8.3-.8.8s.4.8.8.8zm14.7 7c.3-.3.4-.7.1-1.1-.3-.3-.7-.4-1.1-.1l-2.7 2.3C20 11.9 17.6 11 15 11 9 11 4.1 15.8 4.1 21.8c0 1.9.5 3.8 1.4 5.3l-2.4 2c-.3.4-.4.9-.1 1.2.1.2.4.3.6.3.2 0 .3-.1.5-.2l2.3-1.9c2 2.6 5.1 4.3 8.6 4.3 6 0 10.9-4.9 10.9-10.9 0-2.8-1.1-5.4-2.9-7.3l2.6-2.2zm-10.6.1c2.2 0 4.2.7 5.8 2l-8.5 7.1c-.4-1.4-1.1-2.9-2.9-2.9-1.5 0-2.8 1.2-3.6 2.4.3-4.9 4.3-8.6 9.2-8.6zM5.8 23.6c.6-1.1 2.1-3.5 3.5-3.5.9 0 1.2.8 1.6 2.5l-4.2 3.5c-.4-.7-.7-1.6-.9-2.5zm9.2 7.6c-3 0-5.8-1.5-7.5-3.7l3.8-3.2c.4 1.1 1 2.1 2.3 2.1 2.1 0 3.1-1.6 3.8-2.8.4-.7.8-1.3 1.2-1.3.6-.1 1.2 1.1 1.6 2 .6 1.1 1.1 2.1 2.1 2.1.4 0 .7-.1 1-.3-1.5 3-4.7 5.1-8.3 5.1zm9.4-9.4c-.3 1.1-1.1 3.1-2 3.1-.2-.1-.6-.9-.8-1.3-.6-1.3-1.4-2.8-3-2.8-1.2.1-1.8 1.1-2.4 2-.8 1.3-1.3 2-2.5 2-.5 0-.7-.5-1-1.6l9.2-7.7c1.5 1.6 2.4 3.8 2.5 6.3z"/><path d="M27.2 0H2.1C1 0 .1.9.1 2v32c0 1.1.9 2 2 2h25.2c1.1 0 2-.9 2-2V2.1C29.2.9 28.3 0 27.2 0zM2.1 1.5h25.2c.3 0 .5.2.5.5v5H1.5V2.1c0-.3.3-.6.6-.6zm25.1 33H2.1c-.3 0-.5-.2-.5-.5V8.5h26.2V34c-.1.3-.3.5-.6.5z"/>
  </symbol>
  <symbol id="broke_Вода не сливается" viewBox="0 0 50.6 36.1">
    <path d="M4.4 5.4h3.8c.4 0 .8-.3.8-.8s-.4-.7-.8-.7H4.4c-.4 0-.8.4-.8.8s.4.7.8.7zm6.6 0h3.8c.4 0 .8-.3.8-.8s-.3-.8-.8-.8H11c-.4 0-.8.3-.8.8s.4.8.8.8zm3.8 6.5c-5.1 0-9.3 4.2-9.3 9.3 0 5.1 4.2 9.3 9.3 9.3s9.3-4.2 9.3-9.3c0-5.1-4.2-9.3-9.3-9.3zm0 17.1C10.5 29 7 25.5 7 21.2s3.5-7.8 7.8-7.8 7.8 3.5 7.8 7.8-3.5 7.8-7.8 7.8z"/><path d="M50.4 13.8c-.3-.3-.7-.4-1.1-.1l-6.8 5.7c-.2-1.2-.6-2.2-1.1-2.8-.5-.6-1-.9-1.7-.9-3.2-.3-3.7 3.7-4.1 6.9-.1 1-.3 2.3-.5 3.1l-.8.7c-1.2-.8-.5-5.7 0-9 .5-3.2.9-6.3.3-7.9-1.4-4-3.9-4.6-5.2-4.6V2.1c0-1.1-.9-2-2-2H2.2c-1.1 0-2 .9-2 2V34c0 1.1.9 2 2 2h25.2c1.1 0 2-.9 2-2V6.4c.9 0 2.7.4 3.8 3.6.4 1.3 0 4.3-.4 7.2-.6 4.4-1.2 8.6.3 10.1l-3 2.5c-.3.3-.4.7-.1 1.1.1.2.4.3.6.3.2 0 .3-.1.5-.2l3.6-3c.3 0 .6-.1.9-.3.3-.2.6-.6.8-1.1l5.1-4.2c.2 4-.2 9.2-.6 11.7-.1.4.2.8.6.8h.1c.4 0 .7-.3.7-.6.1-1 1-8 .5-13l7.5-6.3c.3-.4.3-.9.1-1.2zM2.2 1.6h25.2c.3 0 .5.2.5.5V7H1.6V2.1c0-.3.3-.5.6-.5zm25.1 32.9H2.2c-.3 0-.5-.2-.5-.5V8.5h26.2V34c-.1.3-.3.5-.6.5zm9.6-10.4c.1-.4.1-.9.2-1.3.4-3.3.9-5.8 2.5-5.6.1 0 .4.1.6.4.5.6.8 1.7 1 3l-4.3 3.5z"/>
  </symbol>
  <symbol id="broke_Выбор города" viewBox="0 0 12.6 7.7">
    <path d="M6.3 7.5L.3.1h1.2L6.3 6 11.2.1h1.2z"/>
  </symbol>
  <symbol id="broke_Вызвать мастера" viewBox="0 0 25.9 25.8">
    <path d="M12.9.1C5.9.1.1 5.8.1 12.9s5.8 12.8 12.8 12.8c7.1 0 12.8-5.8 12.8-12.8S20 .1 12.9.1zm0 24.1c-6.2 0-11.3-5.1-11.3-11.3S6.7 1.6 12.9 1.6c6.2 0 11.3 5.1 11.3 11.3s-5 11.3-11.3 11.3z"/><path d="M10.1 8.1l5.6 5-5.6 4.7v1.9l7.8-6.5-7.8-7z"/>
  </symbol>
  <symbol id="broke_Засор" viewBox="0 0 40.3 36.2">
    <path d="M35.5 21.7c-3.4 0-4.6 3.5-4.7 5.4h.1c0 .1-.1.3-.1.4v7.6c0 .6.5 1.1 1.1 1.1h7.3c.6 0 1.1-.5 1.1-1.1v-7.6c-.1-2.1-1.1-5.8-4.8-5.8zm0 1.5c2.2 0 2.9 1.9 3.1 3.2h-6.2c.2-1.2 1-3.2 3.1-3.2zm3.2 6.1h-6.5v-1.4h6.5v1.4zm-6.5 5.3v-3.9h6.5v3.9h-6.5zM4.3 5.4h3.8c.4 0 .8-.3.8-.8s-.4-.7-.8-.7H4.3c-.4 0-.8.3-.8.8s.4.7.8.7zm6.6 0h3.8c.4 0 .8-.3.8-.8s-.3-.8-.8-.8h-3.8c-.4 0-.8.3-.8.8s.4.8.8.8z"/><path d="M27.2 0H2.1C.9 0 0 .9 0 2v32c0 1.1.9 2 2 2h25.2c1.1 0 2-.9 2-2V2c0-1.1-.9-2-2-2zM2.1 1.5h25.2c.3 0 .5.2.5.5v5H1.5V2c0-.2.3-.5.6-.5zm25.1 33H2.1c-.3 0-.5-.2-.5-.5V8.5h26.2V34c-.1.2-.3.5-.6.5z"/><path d="M14.7 12.4c-4.9 0-8.9 4-8.9 8.9s4 8.9 8.9 8.9 8.9-4 8.9-8.9-4-8.9-8.9-8.9zm0 1.5c4 0 7.3 3.3 7.4 7.3-.2 1-.8 2.2-1.4 2.3-.2-.2-.4-.6-.6-1-.5-1-1.2-2.3-2.6-2.3-1 0-1.6.9-2 1.7-.6 1-1 1.6-1.9 1.6-.4 0-.5-.5-.8-1.7-.3-1.4-.7-3.2-2.7-3.2-1.1 0-2 .7-2.7 1.6.6-3.6 3.6-6.3 7.3-6.3zm0 14.8c-3.6 0-6.6-2.5-7.2-5.9.5-1 1.7-2.7 2.7-2.7.6 0 .9.5 1.2 2.1.3 1.2.7 2.9 2.3 2.9 1.8 0 2.6-1.3 3.2-2.3.3-.5.6-1 .8-1 .4 0 .8.9 1.1 1.5.5.9.9 1.8 1.8 1.8.2 0 .3 0 .5-.1-1.3 2.2-3.7 3.7-6.4 3.7zm9.5-.5c-1.4 0-2.5 1.1-2.5 2.5s1.1 2.5 2.5 2.5 2.5-1.1 2.5-2.5-1.2-2.5-2.5-2.5zm0 4c-.8 0-1.5-.7-1.5-1.5s.7-1.5 1.5-1.5 1.5.7 1.5 1.5-.7 1.5-1.5 1.5z"/>
  </symbol>
  <symbol id="broke_Не включается" viewBox="0 0 40.1 40">
    <path d="M39.4 20.8l-4.4-4 4.2-4.2c.3-.3.4-.6.4-1s-.1-.7-.4-1L37.6 9c-.5-.5-1.4-.5-2 0l-4.4 4.4-5.7-5.2L29.7 4c.5-.5.5-1.4 0-2L28.1.4c-.5-.5-1.4-.5-2 0l-4.3 4.3L17.2.5c-.8-.8-2.2-.7-2.9.1L7.1 8.5c-.3.3-.4.7-.5 1.1L4.5 22.9c-.1.7.2 1.5.7 1.9l.6.5-2.2 2.4c-.5.6-.5 1.4.1 1.9l1.7 1.5-5.2 5.5 1.1 1 5.2-5.4L8 33.6l-5 5.3 1.1 1L9 34.7l2.1 1.9c.3.2.6.4.9.4h.1c.4 0 .7-.2 1-.4l2.3-2.6c.1-.1.1-.1.1-.2l.8.7.1.1c.4.3.9.8 1.5.8h.2l12.7-2.6c.6-.1 1.1-.5 1.3-.8l7.5-8.1c.4-.4.6-.9.5-1.5s-.3-1.2-.7-1.6zm-2.8-10.7l1.5 1.5-9.5 9.4-1.5-1.5 9.5-9.4zm-9.5-8.5L28.6 3l-9.5 9.5-1.5-1.5 9.5-9.4zM14.2 33L12 35.3l-7.3-6.7 2.1-2.3 1 .8 6.4 5.9zm3.7.7c-.2-.1-.4-.3-.5-.4L8.8 26l-1-.9c0-.1-.1-.1-.2-.2l-1.4-1.2c-.2-.1-.2-.3-.2-.5l1.9-11.6 21.8 19.8-11.8 2.3zm20.5-10.9l-7.3 7.9-23-20.9c0-.1.1-.2.1-.3l7.2-7.8c.2-.2.6-.3.8 0l4.5 4.1-4.2 4.2c-.5.5-.5 1.4 0 2l1.6 1.6c.3.3.6.4 1 .4s.7-.1 1-.4l4.4-4.4 5.7 5.2-4.2 4.2c-.5.5-.5 1.4 0 2l1.6 1.6c.3.3.6.4 1 .4s.7-.1 1-.4l4.3-4.3 4.5 4.1c.1.1.2.2.2.4s-.1.2-.2.4z"/>
  </symbol>
  <symbol id="broke_Не выключается" viewBox="0 0 42.2 37.8">
    <path d="M19.7 16.2c.4 0 .8-.3.8-.8V.9c0-.4-.3-.8-.8-.8s-.7.4-.7.8v14.5c0 .4.3.8.7.8z"/><path d="M41.9 2.6c-.3-.3-.7-.4-1.1-.1l-9 7.5c-1.1-1.5-2.5-2.7-4.1-3.8-.3-.2-.8-.1-1 .2-.2.4-.1.8.2 1 1.5.9 2.7 2.1 3.7 3.5l-21 17.6C7.4 26.1 6 22.8 6 19.1c0-4.6 2.3-8.8 6-11.4.3-.2.4-.7.2-1-.2-.3-.7-.4-1-.2C7 9.4 4.5 14.1 4.5 19.1c0 4 1.6 7.7 4.1 10.4L.3 36.4c-.3.3-.3.8 0 1.1.1.2.4.3.6.3.2 0 .3-.1.5-.2l8.4-7c2.7 2.3 6.2 3.8 10 3.8 8.4 0 15.2-6.8 15.2-15.2 0-2.8-.8-5.5-2.2-7.9l9.1-7.6c.3-.3.3-.8 0-1.1zm-8.5 16.5c0 7.6-6.2 13.7-13.7 13.7-3.4 0-6.5-1.2-8.9-3.3l20.7-17.3c1.3 2.1 1.9 4.5 1.9 6.9z"/>
  </symbol>
  <symbol id="broke_Не греет воду" viewBox="0 0 48.5 40.8">
    <path stroke="#1d1d1b" stroke-linecap="round" stroke-miterlimit="10" stroke-width="1.5" d="M16.7 34.5L36 18.4"/><path d="M35.7 27.6l7 .1s4.9-.1 4.9 6.1c0 5.6-4.9 6.2-4.9 6.2H1.4m13.2-25.8H7.2s-6.1.3-6.1 6.3c0 5.8 5.7 6.8 5.7 6.8l5.6.1M1.4 1l41.1.6s5 .6 5 6.8c0 5.8-4.8 5.8-4.8 5.8h-8.5"/><path stroke="#000" stroke-miterlimit="10" stroke-width="1.5" d="M33.4 24.4c0 5-4 9-9 9s-9-4-9-9 9-17.2 9-17.2 9 12.2 9 17.2z"/>
  </symbol>
  <symbol id="broke_Не крутится барабан" viewBox="0 0 29.3 36">
    <path d="M4.3 5.4h3.8c.4 0 .8-.3.8-.8s-.4-.7-.8-.7H4.3c-.4 0-.8.3-.8.8s.4.7.8.7zm6.7 0h3.8c.4 0 .8-.3.8-.8s-.3-.8-.8-.8H11c-.4 0-.8.3-.8.8s.4.8.8.8z"/><path d="M27.3 0H2.1C1 0 .1.9.1 2v32c0 1.1.9 2 2 2h25.2c1.1 0 2-.9 2-2V2.1c0-1.2-.9-2.1-2-2.1zM2.1 1.5h25.2c.3 0 .5.2.5.5v5H1.6V2.1c0-.3.2-.6.5-.6zm25.2 33H2.1c-.3 0-.5-.2-.5-.5V8.5h26.2V34c0 .3-.3.5-.5.5z"/><path d="M13.8 13.6c-5 0-9 4-9 9s4 9 9 9 9-4 9-9c-.1-4.9-4.1-9-9-9zm0 1.5c4.1 0 7.4 3.3 7.5 7.4-.2 1-.9 2.3-1.4 2.4-.2-.2-.4-.7-.6-1-.5-1.1-1.2-2.4-2.6-2.3-1.1 0-1.6.9-2.1 1.7-.6 1-1 1.6-1.9 1.6-.4 0-.6-.5-.8-1.8-.3-1.4-.7-3.3-2.7-3.3-1.1 0-2.1.8-2.8 1.6.5-3.5 3.6-6.3 7.4-6.3zm0 15c-3.6 0-6.7-2.6-7.3-6 .5-1 1.7-2.7 2.7-2.7.6 0 .9.5 1.2 2.1.3 1.2.7 2.9 2.3 2.9 1.8 0 2.6-1.3 3.2-2.3.3-.5.6-1 .8-1 .4 0 .9.9 1.2 1.5.5.9.9 1.8 1.8 1.8.2 0 .4 0 .5-.1-1.2 2.3-3.7 3.8-6.4 3.8z"/><path d="M26.9 21l-1 .4c.3-2-.2-4.6-.8-5.8-2-4.2-5.5-6.2-10.6-6.1-2.2.1-3.9.6-5.6 1.7l.1-.9c0-.3-.3-.6-.7-.6-.4 0-.7.2-.7.6l-.2 2.2v.1c0 .3.2.6.5.7l2.4.6h.2c.3 0 .6-.2.6-.5.1-.3-.1-.7-.5-.8l-.8-.2c1.4-.9 2.8-1.3 4.7-1.4 4.5-.2 7.4 1.5 9.2 5.2.5 1 .8 2.9.7 4.4l-.3-.4c-.2-.3-.6-.4-.9-.2-.3.2-.4.6-.2.9l1.2 1.9.1.1c.1.2.3.3.5.3.1 0 .2 0 .3-.1l2.3-1c.3-.1.5-.5.3-.9-.1-.2-.5-.3-.8-.2z"/>
  </symbol>
  <symbol id="broke_Не морозит" viewBox="0 0 35.5 40.3">
    <path d="M35 28.7l-5.6-3.2 4.7-1c.4-.1.7-.5.6-.9-.1-.4-.5-.7-.9-.6l-6.3 1.3-8.2-4.7 8.1-4.7c.1 0 .1.1.2.1l6.5 1h.1c.4 0 .7-.3.7-.6.1-.4-.2-.8-.6-.9l-5-.7 5.2-3c.4-.2.5-.7.3-1-.2-.4-.7-.5-1-.3l-5.2 3 1.6-4.8c.1-.4-.1-.8-.5-.9-.4-.1-.8.1-.9.5l-2.1 6.3v.1l-8 4.7V9.1c.1 0 .1-.1.2-.2L23 3.8c.4-.3.3-.8 0-1s-.8-.2-1.1.1l-3.1 3.9v-6c0-.4-.3-.8-.8-.8s-.8.3-.8.8v6L14 3c-.3-.3-.7-.3-1.1-.1-.3.3-.3.7-.1 1.1l4.4 4.9s.1 0 .1.1v9.6l-8.7-4.9v-.2L6.2 7.3c-.2-.4-.6-.5-1-.4-.4.2-.6.6-.4 1l1.9 4.7-5.3-3c-.4-.3-.8-.1-1 .2-.2.4-.1.8.3 1l5.2 3-4.9 1c-.4.1-.7.5-.6.9.1.4.4.6.7.6h.2l6.4-1.4h.1l8.5 4.8-7.9 4.6c-.1-.1-.2-.2-.4-.2l-6.5-1c-.4-.1-.8.2-.9.6-.1.4.2.8.6.9l5.2.8-6 3.5c-.4.2-.5.7-.3 1 .1.2.4.4.6.4.1 0 .3 0 .4-.1L6.7 27l-1.5 4.5c-.1.4.1.8.5.9h.2c.3 0 .6-.2.7-.5l2-6.1 8.6-5v9.5c-.1 0-.3.1-.4.2l-4.1 5.1c-.3.3-.2.8.1 1.1.1.1.3.2.5.2s.4-.1.6-.3l3.3-4.1v7c0 .4.3.8.8.8s.8-.3.8-.8V33l3.2 3.6c.1.2.4.3.6.3.2 0 .4-.1.5-.2.3-.3.3-.7.1-1.1l-4.3-4.8v-9.6l7.5 4.3v.4l2.4 6.1c.1.3.4.5.7.5.1 0 .2 0 .3-.1.4-.2.6-.6.4-1l-2-4.9 6.1 3.5c.1.1.2.1.4.1.3 0 .5-.1.7-.4.1-.3 0-.8-.4-1z"/>
  </symbol>
  <symbol id="broke_Не набирает воду" viewBox="0 0 31.8 40">
    <path d="M18.4 4.4H21c.4 0 .8-.3.8-.7s-.3-.8-.8-.8h-2.7c-.4 0-.8.3-.8.8s.5.7.9.7z"/><path d="M31.6 12.1c-.3-.3-.7-.4-1.1-.1l-1.3 1.1v-11c0-1.1-.9-2-2-2H2.1c-1.1 0-2 .9-2 2V34c0 1.1.9 2 2 2h.3v2.8c0 .6.5 1.2 1.1 1.2h3.6c.6 0 1.1-.3 1.3-.9l.3-.7 13.1-.1.2.7c.2.6.7 1 1.3 1H27c.6 0 1.1-.5 1.1-1.2v-3c.6-.3 1.1-1 1.1-1.8V15l2.2-1.9c.4-.2.5-.7.2-1zM2.1 1.6h25.2c.3 0 .5.2.5.5v3.6H1.6V2.1c0-.3.2-.5.5-.5zm24.6 36.9h-3.2l-.2-.6c-.2-.6-.8-1-1.4-1H8.7c-.6 0-1.2.4-1.4 1l-.2.6H3.9V36h22.8v2.5zm1.1-4.5c0 .3-.2.5-.5.5H2.1c-.3 0-.5-.2-.5-.5V7.2h26.2v7.1L25.7 16v-5.1c0-.9-.7-1.6-1.6-1.6H5.5c-.9 0-1.6.7-1.6 1.6V31c0 .9.7 1.6 1.6 1.6h18.6c.9 0 1.6-.7 1.6-1.6V18l2.1-1.7V34zM5.4 21.6C5.9 20.7 7.5 18 9 18c.9 0 1.3.9 1.7 2.7.4 1.5.8 3.5 2.7 3.5 2.1 0 3.1-1.6 3.8-2.8.4-.7.8-1.3 1.2-1.3.4 0 .8.5 1.2 1.1l-8.9 7.4c-.3.3-.4.7-.1 1.1.1.2.4.3.6.3.2 0 .3-.1.5-.2l8.6-7.2c.5.9 1 1.6 1.8 1.6.9 0 1.6-.5 2.2-1.2v8c0 .1-.1.1-.1.1H5.5c-.1 0-.1-.1-.1-.1v-9.4zm18.8-2.1c-.3 1-1.1 3.1-2.1 3.1-.2-.1-.5-.7-.7-1.1l2.8-2.3v.3zm-3.6.7c-.6-.9-1.3-1.7-2.4-1.6-1.2.1-1.8 1.1-2.4 2-.8 1.3-1.3 2-2.5 2-.6 0-.8-.7-1.2-2.3-.4-1.6-.9-3.9-3.1-3.9-1.5 0-2.8 1.2-3.6 2.4v-8c0-.1.1-.1.1-.1h18.6c.1 0 .1.1.1.1v6.4l-3.6 3z"/><path d="M11.6 5h4.7c.3 0 .6-.3.6-.6V2.9c0-.3-.3-.6-.6-.6h-4.7c-.3 0-.6.3-.6.6v1.5c0 .3.3.6.6.6zm.4-1.7h3.9V4H12v-.7z"/>
  </symbol>
  <symbol id="broke_Не открывается" viewBox="0 0 29.4 40">
    <path d="M21 14.2c-.4-.4-.9-.4-1.3 0l-5 5-5-5c-.4-.4-.9-.4-1.3 0s-.4.9 0 1.3l5 5-5 5c-.4.4-.4.9 0 1.3.2.2.4.3.6.3s.5-.1.6-.3l5-5 5 5c.2.2.4.3.6.3s.5-.1.6-.3c.4-.4.4-.9 0-1.3l-5-5 5-5c.6-.3.6-.9.2-1.3z"/><path d="M27.3 0H2.1C1 0 .1.9.1 2v32c0 1 .8 1.9 1.8 2v2.8c0 .6.5 1.2 1.1 1.2h3.6c.6 0 1.1-.3 1.3-.9l.3-.7 13.1-.1.2.7c.2.6.7 1 1.3 1h3.7c.6 0 1.1-.5 1.1-1.2v-2.9c.9-.2 1.6-1 1.6-2V2.1C29.3.9 28.4 0 27.3 0zM2.1 1.5h25.2c.3 0 .5.2.5.5v3.6H1.6V2.1c0-.3.3-.6.5-.6zm24.1 37H23l-.2-.6c-.2-.6-.8-1-1.4-1H8.3c-.6 0-1.2.4-1.4 1l-.2.6H3.4V36h22.8v2.5zm1.1-4H2.1c-.3 0-.5-.2-.5-.5V7.2h26.2V34c0 .3-.2.5-.5.5z"/><path d="M24.1 9.3H5.5c-.9 0-1.6.7-1.6 1.6V31c0 .9.7 1.6 1.6 1.6h18.6c.9 0 1.6-.7 1.6-1.6V10.9c0-.9-.7-1.6-1.6-1.6zm.1 21.7c0 .1-.1.1-.1.1H5.5c-.1 0-.1-.1-.1-.1V10.9c0-.1.1-.1.1-.1h18.6c.1 0 .1.1.1.1V31zM11.7 5h4.7c.3 0 .6-.3.6-.6V2.9c0-.3-.3-.6-.6-.6h-4.7c-.3 0-.6.3-.6.6v1.5c0 .3.2.6.6.6zm.4-1.7H16V4h-3.9v-.7z"/>
  </symbol>
  <symbol id="broke_Не сливает воду" viewBox="0 0 43 45.1">
    <path d="M41.4 26.8c-.5-.6-1-.9-1.7-.9-3.2-.3-3.7 3.7-4.1 6.9-.2 1.5-.5 3.5-.9 3.8h-.1c-1.5-.3-.8-5.6-.3-9.1.5-3.2.9-6.3.3-7.9-1.4-4-3.9-4.6-5.2-4.6V2c0-1.1-.9-2-2-2H2.2C1.1 0 .2.9.2 2v32c0 .9.6 1.7 1.5 1.9v2.9c0 .6.5 1.2 1.1 1.2h3.6c.6 0 1.1-.3 1.3-.9l.3-.6 13.1-.1.2.7c.2.6.7 1 1.3 1h3.7c.6 0 1.1-.5 1.1-1.2V36c1-.1 1.9-.9 1.9-2V16.6c.9 0 2.7.4 3.8 3.6.4 1.3 0 4.3-.4 7.2-.7 5.2-1.4 10.2 1.5 10.8.5.1.9 0 1.3-.3 1-.7 1.3-2.6 1.6-4.9.4-3.3.9-5.8 2.5-5.6.1 0 .4.1.6.4 2 2.4 1.1 12.7.6 16.5-.1.4.2.8.6.8h.1c.4 0 .7-.3.7-.6.2-1.5 1.9-14.3-.8-17.7zM2.2 1.6h25.2c.3 0 .5.2.5.5v3.6H1.6V2.1c0-.3.3-.5.6-.5zM26 38.5h-3.2l-.2-.6c-.2-.6-.8-1-1.4-1L8 37c-.6 0-1.2.4-1.4 1l-.2.6H3.1V36H26v2.5zm1.3-4H2.2c-.3 0-.5-.2-.5-.5V7.2h26.2V34c-.1.3-.3.5-.6.5z"/><path d="M18.5 4.4h2.7c.4 0 .8-.3.8-.7s-.3-.8-.8-.8h-2.7c-.4 0-.8.3-.8.8s.3.7.8.7zm5.6 4.9H5.6c-.9 0-1.6.7-1.6 1.6V31c0 .9.7 1.6 1.6 1.6h18.6c.9 0 1.6-.7 1.6-1.6V10.9c0-.9-.8-1.6-1.7-1.6zM5.6 10.8h18.6c.1 0 .1.1.1.1v8.6h-.1c-.2 1-1.1 3.2-2 3.2-.2-.1-.6-.9-.8-1.3-.6-1.3-1.4-2.8-3-2.8-1.2.1-1.8 1.1-2.4 2-.8 1.3-1.3 2-2.5 2-.6 0-.8-.7-1.2-2.3-.4-1.6-.9-3.9-3.1-3.9-1.5 0-2.8 1.2-3.6 2.4v-8c-.1 0-.1 0 0 0zm18.5 20.4H5.6c-.1 0-.1-.1-.1-.1v-9.4c.5-1 2.1-3.7 3.6-3.7.9 0 1.3.9 1.7 2.7.4 1.5.8 3.5 2.7 3.5 2.1 0 3.1-1.6 3.8-2.8.4-.7.8-1.3 1.2-1.3.6-.1 1.2 1.1 1.6 2 .6 1.1 1.1 2.1 2.1 2.1.9 0 1.6-.5 2.2-1.2v8c-.1.1-.2.2-.3.2zM11.7 5h4.7c.3 0 .6-.3.6-.6V2.9c0-.3-.3-.6-.6-.6h-4.7c-.3 0-.6.3-.6.6v1.5c0 .3.2.6.6.6zm.4-1.7H16V4h-3.9v-.7z"/>
  </symbol>
  <symbol id="broke_Не сушит" viewBox="0 0 33.3 40">
    <path d="M27.4.1H2.2c-1.1 0-2 .9-2 2V34c0 1 .8 1.9 1.8 2v2.8c0 .7.5 1.2 1.1 1.2h3.6c.6 0 1.1-.3 1.3-.9l.3-.7 13.1-.1.2.7c.2.6.7 1 1.3 1h3.7c.6 0 1.1-.5 1.1-1.2V36c.9-.2 1.6-1 1.6-2V2.1c.1-1.1-.8-2-1.9-2zM2.2 1.6h25.2c.3 0 .5.2.5.5v3.6H1.7V2.1c0-.3.2-.5.5-.5zm24.1 36.9h-3.2l-.2-.6c-.2-.6-.8-1-1.4-1H8.3c-.6 0-1.2.4-1.4 1l-.2.6H3.5V36h22.8v2.5zm1.1-4H2.2c-.3 0-.5-.2-.5-.5V7.2h26.2V34c0 .3-.2.5-.5.5z"/><path d="M24.2 9.3H5.6c-.9 0-1.6.7-1.6 1.6V31c0 .9.7 1.6 1.6 1.6h18.6c.9 0 1.6-.7 1.6-1.6V10.9c0-.9-.7-1.6-1.6-1.6zm.1 21.7c0 .1-.1.1-.1.1H5.6c-.1 0-.1-.1-.1-.1V10.9c0-.1.1-.1.1-.1h18.6c.1 0 .1.1.1.1V31zM11.8 5h4.7c.3 0 .6-.3.6-.6V2.9c0-.3-.3-.6-.6-.6h-4.7c-.3 0-.6.3-.6.6v1.5c-.1.3.2.6.6.6zm.3-1.7H16V4h-3.9v-.7z"/><path d="M9.9 21.7c-.3-.2-.7-.5-.7-.6 0-.3.4-.7.8-1.1.6-.7 1.5-1.5 1.5-2.7 0-1.3-.9-2.1-1.6-2.7-.3-.2-.7-.6-.7-.7 0-.3-.3-.6-.6-.6s-.6.2-.6.5c0 .7.6 1.2 1.1 1.7.6.5 1.2 1 1.2 1.8 0 .7-.6 1.3-1.1 1.8-.6.6-1.2 1.2-1.1 2 0 .8.7 1.2 1.3 1.6.7.5 1.4.9 1.4 1.9 0 .8-.5 1.3-1.1 1.8-.6.5-1.1 1-1.1 1.8 0 .3.3.6.6.6s.6-.3.6-.6.4-.6.7-.9c.6-.6 1.5-1.4 1.5-2.7-.1-1.7-1.3-2.4-2.1-2.9zm5.2 0c-.3-.2-.7-.5-.7-.6 0-.3.4-.7.8-1.1.7-.7 1.5-1.5 1.5-2.7 0-1.3-.9-2.1-1.6-2.7-.3-.2-.7-.6-.7-.7 0-.3-.3-.6-.6-.6s-.6.3-.6.6c0 .7.6 1.2 1.1 1.7.6.5 1.2 1 1.2 1.8 0 .7-.6 1.3-1.1 1.8-.6.6-1.2 1.2-1.1 2 0 .8.7 1.2 1.3 1.6.7.5 1.4.9 1.4 1.9 0 .8-.5 1.3-1.1 1.8-.6.5-1.1 1-1.1 1.8 0 .3.3.6.6.6s.6-.3.6-.6.4-.6.7-.9c.6-.6 1.5-1.4 1.5-2.7-.1-1.8-1.3-2.5-2.1-3zm5.1 0c-.3-.2-.7-.5-.7-.6 0-.3.4-.7.8-1.1.7-.7 1.5-1.5 1.5-2.7 0-1.3-.9-2.1-1.6-2.7-.3-.2-.7-.6-.7-.7 0-.3-.3-.6-.6-.6s-.6.3-.6.6c0 .7.6 1.2 1.1 1.7.6.5 1.2 1 1.2 1.8 0 .7-.6 1.3-1.1 1.8-.6.6-1.2 1.2-1.1 2 0 .8.7 1.2 1.3 1.6.7.5 1.4.9 1.4 1.9 0 .8-.5 1.3-1.1 1.8-.6.5-1.1 1-1.1 1.8 0 .3.3.6.6.6s.6-.3.6-.6.4-.6.7-.9c.6-.6 1.5-1.4 1.5-2.7-.1-1.8-1.3-2.5-2.1-3z"/><path stroke="#1d1d1b" stroke-linecap="round" stroke-miterlimit="10" stroke-width="1.5" d="M12.2 29.7l19.9-16.6"/>
  </symbol>
  <symbol id="broke_Непрерывно заливается вода" viewBox="0 0 43.1 44.6">
    <path d="M18.4 4.4h2.7c.4 0 .8-.3.8-.8s-.3-.8-.8-.8h-2.7c-.4 0-.8.3-.8.8s.4.8.8.8zM5.5 32.7h18.6c.9 0 1.6-.7 1.6-1.6V11c0-.9-.7-1.6-1.6-1.6H5.5c-.9 0-1.6.7-1.6 1.6v20.1c0 .9.7 1.6 1.6 1.6zm18.6-1.5H5.5c-.1 0-.1-.1-.1-.1V16c.5-1 2.1-3.7 3.6-3.7.9 0 1.3.9 1.7 2.7.4 1.5.8 3.5 2.7 3.5 2.1 0 3.1-1.6 3.8-2.8.4-.7.8-1.3 1.2-1.3.6 0 1.2 1.1 1.6 1.9.6 1.1 1.1 2.1 2.1 2.1.9 0 1.6-.5 2.2-1.2V31c-.1.2-.2.2-.2.2zM5.5 10.8h18.6c.1 0 .1.1.1.1v2.9h-.1c-.2 1-1.1 3.2-2 3.2-.2-.1-.6-.9-.8-1.3-.6-1.3-1.4-2.8-3-2.8-1.2.1-1.8 1.1-2.4 2-.8 1.3-1.3 2-2.5 2-.6 0-.8-.7-1.2-2.3-.4-1.6-.9-3.9-3.1-3.9-1.5 0-2.8 1.2-3.6 2.4V11c-.1-.1-.1-.2 0-.2zm6.1-5.7h4.7c.3 0 .6-.3.6-.6V3c0-.3-.3-.6-.6-.6h-4.7c-.3-.1-.6.2-.6.6v1.5c0 .3.3.6.6.6zm.4-1.8h3.9V4H12v-.7z"/><path d="M43.1 38.8c0-.3-.1-.5-.3-.7-.6-.6-1.9-.5-3.9-.4-1.3.1-2.9.2-3.5-.1-.1 0-.2-.3-.3-.4-.2-.3-.4-.5-.6-.7-1.3-.8-4.1-.9-5.3-.7L28 36c.8-.3 1.4-1 1.4-1.9v-32c0-1.1-.9-2-2-2H2.1c-1.1 0-2 .9-2 2V34c0 1.1.8 1.9 1.9 2v2.8c0 .6.5 1.2 1.1 1.2h3.6c.6 0 1.1-.3 1.3-.9l.3-.7 11.2-.1c-.6.3-1 .8-.9 1.5.2 1.9 3.1 2 5.9 2 1.5 0 2.9.1 3.7.4.1.1.2.4.3.7.1.5.3 1.1 1 1.3.6.2 1.7.3 2.9.3 3.3 0 7.9-.6 9.1-1.3.1-.1.4-.2.4-.5.2-.9-.9-1.2-1.8-1.5-.4-.1-1.1-.3-1.2-.4.1-.2 1.1-.4 1.7-.5 1.2-.3 2.5-.5 2.5-1.5zM2.1 1.6h25.2c.3 0 .5.2.5.5v3.6H1.6V2.1c0-.2.2-.5.5-.5zm-.5 32.5V7.3h26.2v26.8c0 .3-.2.5-.5.5H2.1c-.3 0-.5-.3-.5-.5zM8.3 37c-.6 0-1.2.4-1.4 1l-.2.6H3.4v-2.5h23v2.5h-3.3l-.2-.6c-.2-.6-.8-1-1.4-1H8.3zm29.6 3.8c.1.8 1 1.1 1.9 1.3l.9.3c-1.7.7-8.7 1.6-11 .9-.1 0-.2-.3-.3-.6-.1-.5-.3-1-.9-1.3-.9-.4-2.4-.4-4.1-.4-2.1 0-4.8-.1-4.9-1.1 0-.2.2-.7 2.1-1l.1.3c.2.6.7 1 1.3 1h3.7c.6 0 1.1-.5 1.1-1.2v-1.8c.4-.1 1-.2 1.4-.2 1.2-.2 3.7 0 4.7.6.1 0 .2.3.3.4.2.3.4.6.7.7.9.4 2.4.3 4 .2 1.1-.1 2.9-.2 3.1 0-.1.2-1.2.4-1.7.5-1.2.2-2.5.4-2.4 1.4z"/>
  </symbol>
  <symbol id="broke_Отключается" viewBox="0 0 42.2 37.8">
    <path d="M19.7 16.2c.4 0 .8-.3.8-.8V.9c0-.4-.3-.8-.8-.8s-.7.4-.7.8v14.5c0 .4.3.8.7.8z"/><path d="M41.9 2.6c-.3-.3-.7-.4-1.1-.1l-9 7.5c-1.1-1.5-2.5-2.7-4.1-3.8-.3-.2-.8-.1-1 .2-.2.4-.1.8.2 1 1.5.9 2.7 2.1 3.7 3.5l-21 17.6C7.4 26.1 6 22.8 6 19.1c0-4.6 2.3-8.8 6-11.4.3-.2.4-.7.2-1-.2-.3-.7-.4-1-.2C7 9.4 4.5 14.1 4.5 19.1c0 4 1.6 7.7 4.1 10.4L.3 36.4c-.3.3-.3.8 0 1.1.1.2.4.3.6.3.2 0 .3-.1.5-.2l8.4-7c2.7 2.3 6.2 3.8 10 3.8 8.4 0 15.2-6.8 15.2-15.2 0-2.8-.8-5.5-2.2-7.9l9.1-7.6c.3-.3.3-.8 0-1.1zm-8.5 16.5c0 7.6-6.2 13.7-13.7 13.7-3.4 0-6.5-1.2-8.9-3.3l20.7-17.3c1.3 2.1 1.9 4.5 1.9 6.9z"/>
  </symbol>
  <symbol id="broke_Перемораживает" viewBox="0 0 31.3 44.2">
    <path d="M29.1.1H2.3C1.1.1.1 1.1.1 2.3v36.8c0 1.2 1 2.2 2.2 2.2h2.5v1.4c0 .9.7 1.6 1.6 1.6h4c.9 0 1.6-.7 1.6-1.6v-1.4h8.3v1.4c0 .9.7 1.6 1.6 1.6h4c.9 0 1.6-.7 1.6-1.6v-1.4h1.9c1.2 0 2.2-1 2.2-2.2V2.2C31.3 1 30.3.1 29.1.1zM2.3 1.6h26.9c.4 0 .7.3.7.7v15.2H1.6V2.2c0-.3.3-.6.7-.6zm8 39.7v1.3s0 .1-.1.1l-4-.1.1-1.4 4 .1zm15.4 0v1.3s0 .1-.1.1l-4-.1.1-1.4 4 .1zm3.4-1.6H2.2c-.4 0-.7-.3-.7-.7V18.9h28.2v20.2c.1.3-.2.6-.6.6z"/><path d="M5 15.5c.4 0 .8-.3.8-.8v-4.3c-.1-.4-.4-.7-.8-.7s-.8.3-.8.7v4.3c0 .5.4.8.8.8zm0 5c-.4 0-.8.3-.8.8v6.6c0 .4.3.8.8.8s.8-.3.8-.8v-6.6c-.1-.5-.4-.8-.8-.8z"/><path stroke="#1d1d1b" stroke-miterlimit="10" stroke-width="1.5" d="M5 18.2l5.9 2.3L13.1 31l3.5-10.5 1.9 4.1 3.1-3.5 3.2 7.5 3.5-11.1"/>
  </symbol>
  <symbol id="broke_Покрывается льдом" viewBox="0 0 55.5 45">
    <path d="M54.7 31.1H.9c-.4 0-.8-.3-.8-.8s.3-.8.8-.8h53.8c.4 0 .8.3.8.8s-.4.8-.8.8z"/><path d="M48.2 31.1c-.3 0-.5-.1-.7-.4L32.3 2.4l-11.1 9.8L19.6 23l-8.9-3.9-2.2 11.4c-.1.4-.5.7-.9.6-.4-.1-.7-.5-.6-.9l2.5-13.3 8.9 3.9 1.4-9.3L32.7 0l16.1 30c.2.4.1.8-.3 1-.1.1-.2.1-.3.1zM11.8 44.9c-2.2 0-3.9-1.8-3.9-3.9 0-1.9 2.7-6.5 3.2-7.4l.6-1.1.7 1.1c.6.9 3.4 5.5 3.4 7.4-.1 2.2-1.9 3.9-4 3.9zm-.1-9.4c-1.1 2-2.4 4.6-2.4 5.5 0 1.3 1.1 2.4 2.4 2.4 1.3 0 2.4-1.1 2.4-2.4.1-.9-1.2-3.5-2.4-5.5zm15.5 9.4c-2.2 0-3.9-1.8-3.9-3.9 0-1.9 2.7-6.5 3.2-7.4l.6-1.1.7 1.1c.6.9 3.4 5.5 3.4 7.4-.1 2.2-1.9 3.9-4 3.9zm-.1-9.4c-1.1 2-2.4 4.6-2.4 5.5 0 1.3 1.1 2.4 2.4 2.4s2.4-1.1 2.4-2.4c.1-.9-1.2-3.5-2.4-5.5zm15.4 9.4c-2.2 0-3.9-1.8-3.9-3.9 0-1.9 2.7-6.5 3.2-7.4l.6-1.1.7 1.1c.6.9 3.4 5.5 3.4 7.4 0 2.2-1.8 3.9-4 3.9zm0-9.4c-1.1 2-2.4 4.6-2.4 5.5 0 1.3 1.1 2.4 2.4 2.4S45 42.3 45 41c0-.9-1.4-3.5-2.5-5.5z"/>
  </symbol>
  <symbol id="broke_Протекает" viewBox="0 0 40 40.4">
    <path d="M7.1 1l-.7-1-.6 1c-.6.9-5.7 9-5.7 12.2 0 3.5 2.9 6.4 6.4 6.4s6.4-2.9 6.4-6.4C12.8 10 7.7 1.9 7.1 1zm-.7 17c-2.7 0-4.9-2.2-4.9-4.9 0-2.1 3.1-7.5 4.9-10.4 1.8 2.9 4.9 8.3 4.9 10.4 0 2.8-2.2 4.9-4.9 4.9zm11.3 2.8l-.6 1c-.6.9-5.7 9-5.7 12.2 0 3.5 2.9 6.4 6.4 6.4S24 37.5 24 34c0-3.2-5.1-11.3-5.7-12.2l-.6-1zm0 18c-2.7 0-4.9-2.2-4.9-4.9 0-2.1 3.1-7.5 4.9-10.4 1.8 2.9 4.9 8.3 4.9 10.4-.1 2.8-2.3 4.9-4.9 4.9zM34.2 7.5l-.6-1-.6 1c-.6.9-5.7 9-5.7 12.2 0 3.5 2.9 6.4 6.4 6.4s6.4-2.9 6.4-6.4c-.1-3.3-5.3-11.3-5.9-12.2zm-.6 17c-2.7 0-4.9-2.2-4.9-4.9 0-2.1 3.1-7.5 4.9-10.4 1.8 2.9 4.9 8.3 4.9 10.4 0 2.7-2.2 4.9-4.9 4.9z"/>
  </symbol>
  <symbol id="broke_Работает только морозилка" viewBox="0 0 31.3 44.2">
    <path d="M29.1.1H2.3C1.1.1.1 1.1.1 2.3v36.8c0 1.2 1 2.2 2.2 2.2h2.5v1.4c0 .9.7 1.6 1.6 1.6h4c.9 0 1.6-.7 1.6-1.6v-1.4h8.3v1.4c0 .9.7 1.6 1.6 1.6h4c.9 0 1.6-.7 1.6-1.6v-1.4h1.9c1.2 0 2.2-1 2.2-2.2V2.2C31.3 1 30.3.1 29.1.1zM2.3 1.6h26.9c.4 0 .7.3.7.7v15.2H1.6V2.2c0-.3.3-.6.7-.6zm8 39.7v1.3s0 .1-.1.1l-4-.1.1-1.4 4 .1zm15.4 0v1.3s0 .1-.1.1l-4-.1.1-1.4 4 .1zm3.4-1.6H2.2c-.4 0-.7-.3-.7-.7V18.9h28.2v20.2c.1.3-.2.6-.6.6z"/><path d="M21.6 22.3c-.4-.4-.9-.4-1.3 0l-5 5-5-5c-.4-.4-.9-.4-1.3 0s-.4.9 0 1.3l5 5-5 5c-.4.4-.4.9 0 1.3.2.2.4.3.6.3s.5-.1.6-.3l5-5 5 5c.2.2.4.3.6.3s.5-.1.6-.3c.4-.4.4-.9 0-1.3l-5-5 5-5c.6-.4.6-1 .2-1.3zM5 15.5c.4 0 .8-.3.8-.8v-4.3c-.1-.4-.4-.7-.8-.7s-.8.3-.8.7v4.3c0 .5.4.8.8.8zm0 5c-.4 0-.8.3-.8.8v6.6c0 .4.3.8.8.8s.8-.3.8-.8v-6.6c-.1-.5-.4-.8-.8-.8z"/>
  </symbol>
  <symbol id="broke_Термостат" viewBox="0 0 40.8 35.2">
    <path d="M38.4.1H2.3C1 .1 0 1.1 0 2.3v30.6c0 1.2 1 2.2 2.2 2.2h36.1c1.2 0 2.2-1 2.2-2.2V2.3c.1-1.2-.9-2.2-2.1-2.2zm.7 32.8c0 .4-.3.7-.7.7H2.3c-.4 0-.7-.3-.7-.7V2.3c0-.4.3-.7.7-.7h36.1c.4 0 .7.3.7.7v30.6z"/><path d="M20.3 7.8c-5.9 0-10.7 4.8-10.7 10.7s4.8 10.7 10.7 10.7S31 24.4 31 18.5 26.2 7.8 20.3 7.8zm0 19.9c-5.1 0-9.2-4.1-9.2-9.2s4.1-9.2 9.2-9.2 9.2 4.1 9.2 9.2-4.1 9.2-9.2 9.2z"/><path d="M20.9 14.1v-1.8c0-.4-.3-.8-.8-.8s-.8.3-.8.8v1.8c-2.1.4-3.7 2.2-3.7 4.4 0 2.5 2 4.5 4.5 4.5s4.5-2 4.5-4.5c0-2.2-1.6-4.1-3.7-4.4zm-.8 7.4c-1.6 0-3-1.3-3-3 0-1.6 1.3-3 3-3s3 1.3 3 3c0 1.6-1.3 3-3 3zm13.4 5.2c-1.3 0-2.4 1.1-2.4 2.4 0 1.3 1.1 2.4 2.4 2.4s2.4-1.1 2.4-2.4c0-1.3-1.1-2.4-2.4-2.4zm0 3.4c-.5 0-.9-.4-.9-.9s.4-.9.9-.9.9.4.9.9-.4.9-.9.9zm-.8-15.8c.4 1.9.4 3.3.4 3.3 0 .3.3.6.6.6s.6-.3.6-.6c0-.1 0-1.6-.4-3.6-.1-.3-.4-.5-.7-.5-.4.1-.6.5-.5.8zm-.6-2c.1.2.3.4.6.4h.2c.3-.1.5-.5.4-.8-.4-1.2-1-2.3-1.7-3.3-.2-.3-.6-.3-.8-.1-.3.2-.3.6-.1.8.5.9 1 1.9 1.4 3zm-5.8-6.6c.9.4 1.7.9 2.5 1.6.1.1.3.1.4.1.2 0 .3-.1.5-.2.2-.3.2-.6-.1-.8-.8-.7-1.8-1.3-2.8-1.7-.3-.1-.7 0-.8.3-.1.2 0 .6.3.7zm-5.7-1.6c1.1 0 2.1.2 3 .4.3.1.6-.1.7-.4.1-.3-.1-.6-.4-.7-1-.3-2.1-.4-3.3-.4C6.5 2.5 5.5 17 5.5 17.2c0 .3.2.6.6.6.3 0 .6-.2.6-.6.1-.5.9-13.4 13.9-13.1z"/>
  </symbol>
  <symbol id="broke_Течет" viewBox="0 0 40 40.4">
    <path d="M7.1 1l-.7-1-.6 1c-.6.9-5.7 9-5.7 12.2 0 3.5 2.9 6.4 6.4 6.4s6.4-2.9 6.4-6.4C12.8 10 7.7 1.9 7.1 1zm-.7 17c-2.7 0-4.9-2.2-4.9-4.9 0-2.1 3.1-7.5 4.9-10.4 1.8 2.9 4.9 8.3 4.9 10.4 0 2.8-2.2 4.9-4.9 4.9zm11.3 2.8l-.6 1c-.6.9-5.7 9-5.7 12.2 0 3.5 2.9 6.4 6.4 6.4S24 37.5 24 34c0-3.2-5.1-11.3-5.7-12.2l-.6-1zm0 18c-2.7 0-4.9-2.2-4.9-4.9 0-2.1 3.1-7.5 4.9-10.4 1.8 2.9 4.9 8.3 4.9 10.4-.1 2.8-2.3 4.9-4.9 4.9zM34.2 7.5l-.6-1-.6 1c-.6.9-5.7 9-5.7 12.2 0 3.5 2.9 6.4 6.4 6.4s6.4-2.9 6.4-6.4c-.1-3.3-5.3-11.3-5.9-12.2zm-.6 17c-2.7 0-4.9-2.2-4.9-4.9 0-2.1 3.1-7.5 4.9-10.4 1.8 2.9 4.9 8.3 4.9 10.4 0 2.7-2.2 4.9-4.9 4.9z"/>
  </symbol>
  <symbol id="broke_Шумит" viewBox="0 0 40.2 34.6">
    <path d="M34.5 13.8c.1-1.6.1-5.5-2.3-8.9C29 .4 24.8 0 20.1 0 15.6 0 13 .9 9.5 3.7c-4.1 3.3-4 8.1-3.8 10.1-3.2.4-5.6 3.1-5.6 6.4v8c0 3.6 2.9 6.5 6.5 6.5h.8v-21h-.2c-.2-1.6-.3-6 3.2-8.8 3.2-2.6 5.5-3.4 9.7-3.4 5.2 0 8.3.7 10.9 4.2 2.1 3 2.1 6.5 2 7.9h-.1v20.9h.8c3.6 0 6.5-2.9 6.5-6.5v-8c-.1-3.1-2.5-5.8-5.7-6.2zM5.8 33.1c-2.4-.3-4.3-2.4-4.3-4.9v-8c0-2.5 1.9-4.6 4.3-4.9v17.8zm32.8-4.9c0 2.5-1.9 4.6-4.3 4.9V15.3c2.4.3 4.3 2.4 4.3 4.9v8z"/><path d="M9.3 12.8c-.4 0-.8.3-.8.8v20.1c0 .4.3.8.8.8s.8-.3.8-.8V13.6c0-.4-.4-.8-.8-.8zm21 0c-.4 0-.8.3-.8.8v20.1c0 .4.3.8.8.8s.8-.3.8-.8V13.6c-.1-.4-.4-.8-.8-.8zm-5.4 3.4l-2.6 10.7-2.7-13.5-1.8 13-2.7-11-1.5 10.9-.9-2.3c-.1-.3-.4-.4-.6-.3-.3.1-.4.4-.3.6l2.1 6.1 1.4-9.8L18 31.8l1.7-12.4 2.4 12.1 2.7-11 1.8 7.8c.1.3.3.4.6.4.3-.1.4-.3.4-.6l-2.7-11.9z"/>
  </symbol>
  <symbol id="table_pj_1_Посудомойки" viewBox="0 0 40.8 52.4">
    <path d="M38 0H2.8C1.3 0 0 1.4 0 3.1v40.8C0 45.6 1.3 47 2.8 47v5.4h5.8v-.7c0-.6.1-1.4.2-1.6 2.2-.4 21.2-.4 23.7 0 .1.3.2 1 .2 1.6v.8h5.5v-5.4c1.5-.1 2.7-1.4 2.7-3v-41C40.8 1.4 39.5 0 38 0zM2.8 1.7H38c.7 0 1.2.6 1.2 1.4v6.2H1.6V3.1c0-.8.6-1.4 1.2-1.4zm31.3 49.2c-.1-1.1-.3-1.8-.8-2.1-.7-.4-7.3-.5-12.7-.5-12 0-12.5.4-12.8.6-.4.4-.6 1.2-.7 2H4.3V47h32.3v3.9h-2.5zm3.9-5.7H2.8c-.7 0-1.2-.6-1.2-1.4v-33h37.6v33.1c0 .7-.5 1.3-1.2 1.3z"/><path d="M36.2 12.1H5.1c-1 0-1.9.8-1.9 1.8V42c0 1 .8 1.8 1.9 1.8h31.1c1 0 1.9-.8 1.9-1.8V14c0-1.1-.8-1.9-1.9-1.9zm.4 29.9c0 .2-.2.3-.4.3H5.1c-.2 0-.4-.2-.4-.3V14c0-.2.2-.3.4-.3h31.1c.2 0 .4.2.4.3v28zM17.1 7.8H24c.5 0 .9-.4.9-.9v-3c0-.5-.4-.9-.9-.9h-6.9c-.5 0-.9.4-.9.9v3c0 .5.4.9.9.9zm.6-3.3h5.7v1.8h-5.7V4.5z"/><path d="M25.9 22.9c-4.7 0-8.5 3.8-8.5 8.5s3.8 8.5 8.5 8.5 8.5-3.8 8.5-8.5-3.8-8.5-8.5-8.5zm0 15.5c-3.8 0-7-3.1-7-7s3.1-7 7-7 7 3.1 7 7-3.2 7-7 7z"/><path d="M25.9 27.3c-2.2 0-4.1 1.8-4.1 4.1s1.8 4.1 4.1 4.1 4.1-1.8 4.1-4.1-1.8-4.1-4.1-4.1zm0 6.7c-1.4 0-2.6-1.2-2.6-2.6 0-1.4 1.2-2.6 2.6-2.6s2.6 1.2 2.6 2.6c0 1.4-1.2 2.6-2.6 2.6zM29 6.9h1c.5 0 1-.4 1-1v-1c0-.5-.4-1-1-1h-1c-.5 0-1 .4-1 1v1c0 .5.4 1 1 1zM10.2 21.8H6.1l.4 1c.1.2.7 1.7 1.5 2.4.7.7 1.7 1.2 2.2 1.5v3.4c-1.7.5-2.8 2.2-3.1 3.5-.3 1.4 0 5.1 0 5.5l.1.7H15l.1-.7c0-.4.4-4.2.1-5.6-.3-1.3-1.5-3.1-3.5-3.4v-3.3h.1c.6-.3 1.6-.8 2.2-1.5.7-.7 1.4-2.2 1.5-2.4l.4-1h-5.7zm3.5 12.1c.2.9.1 3.1 0 4.5H8.6c-.1-1.3-.2-3.5 0-4.4.2-.8 1.1-2.5 2.6-2.5 1.6 0 2.4 1.8 2.5 2.4zm-.1-10.6c-.2.4-.4.7-.6.9-.6.6-1.5 1-2 1.3-.5-.2-1.4-.7-2-1.3-.2-.2-.4-.5-.6-.9h5.2z"/>
  </symbol>
  <symbol id="table_pj_1_Стиральная машина" viewBox="0 0 39.2 43.5">
    <path d="M36.5 41.3H2.7c-1.5 0-2.7-1.2-2.7-2.7V2.7C0 1.2 1.2 0 2.7 0h33.7c1.5 0 2.7 1.2 2.7 2.7v35.9c0 1.5-1.2 2.7-2.6 2.7zM2.7 1.5c-.7 0-1.2.5-1.2 1.2v35.9c0 .7.5 1.2 1.2 1.2h33.7c.7 0 1.2-.5 1.2-1.2V2.7c0-.7-.5-1.2-1.2-1.2H2.7z"/><path d="M.8 9.2h37.6v1.5H.8zm0 5.7h7v1.5h-7zm24.7 11.7l-1.5-.4c.2-.9.1-2.5-1.1-3.9-1.5-1.8-3.7-.9-3.7-.9l-.5-1.4c.1-.1 3.2-1.2 5.4 1.3 1.6 1.8 1.8 3.9 1.4 5.3zM.8 19.9h4.1v1.5H.8zM4.9 4.7h5v1.5h-5zm10 0h5v1.5h-5z"/><path d="M20 35.5c-5.8 0-10.5-4.7-10.5-10.5S14.3 14.5 20 14.5 30.5 19.3 30.5 25 25.8 35.5 20 35.5zM20 16c-5 0-9 4-9 9s4 9 9 9 9-4 9-9-4-9-9-9zm-8.6 27.5H7.5c-.3 0-.5-.2-.5-.5v-1.6h4.9V43c0 .2-.2.5-.5.5zm20.9 0h-3.9c-.3 0-.5-.2-.5-.5v-1.6h4.9V43c0 .2-.2.5-.5.5z"/>
  </symbol>
  <symbol id="table_pj_1_Холодильник" viewBox="0 0 35.3 48.9">
    <path d="M33 .1H2.3C1.1.1.1 1.1.1 2.3v41.4c0 1.2 1 2.2 2.2 2.2H3c0 .6.2 1.4.9 2.1.6.6 1.5.9 2.4.9.8 0 1.7-.2 2.4-.7.9-.6 1.2-1.5 1.3-2.2h15.4c0 .6.2 1.4.9 2.1.6.6 1.5.9 2.4.9.8 0 1.7-.2 2.4-.7.9-.6 1.2-1.5 1.3-2.2h.6c1.2 0 2.2-1 2.2-2.2V2.3c0-1.2-1-2.2-2.2-2.2zM2.3 1.6H33c.4 0 .7.3.7.7v16H1.6v-16c0-.4.3-.7.7-.7zm5.6 45.3c-1.1.7-2.4.5-3 0-.3-.3-.4-.6-.4-.9h4c-.1.3-.3.7-.6.9zm22.3 0c-1.1.7-2.4.5-3 0-.3-.3-.4-.6-.4-.9h4c0 .3-.2.7-.6.9zm2.8-2.4H2.3c-.4 0-.7-.3-.7-.7V19.9h32.1v23.9c0 .3-.3.7-.7.7z"/><path d="M6.1 5.9h1.5V15H6.1zm0 16.9h1.5v9.1H6.1z"/>
  </symbol>
</svg>